<?xml version="1.0" standalone="no"?>
<!DOCTYPE svg PUBLIC "-//W3C//DTD SVG 1.1//EN" "http://www.w3.org/Graphics/SVG/1.1/DTD/svg11.dtd" >
<svg xmlns="http://www.w3.org/2000/svg">
<metadata>Generated by IcoMoon</metadata>
<defs>
<font id="icomoon" horiz-adv-x="1024">
<font-face units-per-em="1024" ascent="960" descent="-64" />
<missing-glyph horiz-adv-x="1024" />
<glyph unicode="&#x20;" horiz-adv-x="512" d="" />
<glyph unicode="&#xe900;" glyph-name="icon_arrow-down" d="M211.2 665.6c32 0 612.267 0 635.733 0 29.867 0 51.2-23.467 34.133-44.8-12.8-17.067-292.267-373.333-317.867-405.333-14.933-19.2-53.333-19.2-68.267 0-17.067 21.333-298.667 379.733-317.867 405.333-14.933 19.2 2.133 44.8 34.133 44.8z" />
<glyph unicode="&#xe901;" glyph-name="icon_arrow-left" d="M731.733 765.867c0-32 0-612.267 0-635.733 0-29.867-23.467-51.2-44.8-34.133-17.067 12.8-373.333 292.267-405.333 317.867-19.2 14.933-19.2 53.333 0 68.267 21.333 17.067 379.733 298.667 405.333 317.867 19.2 14.933 44.8-2.133 44.8-34.133z" />
<glyph unicode="&#xe902;" glyph-name="icon_arrow-right" d="M315.733 130.133c0 32 0 612.267 0 635.733 0 29.867 23.467 51.2 44.8 34.133 17.067-12.8 373.333-292.267 405.333-317.867 19.2-14.933 19.2-53.333 0-68.267-21.333-17.067-379.733-298.667-405.333-317.867-21.333-14.933-44.8 2.133-44.8 34.133z" />
<glyph unicode="&#xe903;" glyph-name="icon_arrow-up" d="M825.6 221.867c-32 0-612.267 0-635.733 0-29.867 0-51.2 23.467-34.133 44.8 14.933 17.067 294.4 373.333 317.867 405.333 14.933 19.2 53.333 19.2 68.267 0 17.067-21.333 298.667-379.733 317.867-405.333 14.933-19.2-2.133-44.8-34.133-44.8z" />
<glyph unicode="&#xe904;" glyph-name="icon_back" d="M693.333 98.133l-46.933-46.933-405.333 403.2 46.933 46.933 356.267 358.4 49.067-49.067-358.4-356.267 358.4-356.267z" />
<glyph unicode="&#xe905;" glyph-name="icon_bag-a" d="M512 753.067c-44.8 0-91.733-32-93.867-104.533h192c-4.267 70.4-53.333 104.533-98.133 104.533zM360.533 627.2l-40.533-362.667h384l-42.667 362.667h-300.8zM456.533 535.467h-42.667v42.667h42.667v-42.667zM605.867 535.467h-42.667v42.667h42.667v-42.667zM512 829.867c-211.2 0-384-172.8-384-384s172.8-384 384-384c211.2 0 384 172.8 384 384s-172.8 384-384 384zM296.533 243.2l44.8 405.333h53.333c2.133 85.333 61.867 125.867 117.333 125.867 57.6 0 115.2-42.667 117.333-125.867h51.2l49.067-405.333h-433.067z" />
<glyph unicode="&#xe906;" glyph-name="icon_bag-b" d="M369.067 556.8l-38.4-347.733h360.533l-40.533 347.733h-281.6zM456.533 475.733c0-8.533-6.4-14.933-14.933-14.933h-14.933c-8.533 0-14.933 6.4-14.933 14.933v14.933c0 8.533 6.4 14.933 14.933 14.933h14.933c8.533 0 14.933-6.4 14.933-14.933v-14.933zM618.667 475.733c0-8.533-6.4-14.933-14.933-14.933h-14.933c-8.533 0-14.933 6.4-14.933 14.933v14.933c0 8.533 6.4 14.933 14.933 14.933h14.933c8.533 0 14.933-6.4 14.933-14.933v-14.933zM512 919.467c-264.533 0-480-215.467-480-480 0-266.667 215.467-482.133 480-482.133s480 215.467 480 482.133c0 264.533-215.467 480-480 480zM512 721.067c53.333 0 108.8-42.667 108.8-123.733 0-4.267-4.267-8.533-8.533-8.533s-8.533 4.267-8.533 8.533c0 32-10.667 59.733-27.733 78.933-19.2 17.067-40.533 27.733-64 27.733-42.667 0-89.6-32-89.6-104.533 0-4.267-4.267-8.533-8.533-8.533s-8.533 4.267-8.533 8.533c-2.133 83.2 53.333 121.6 106.667 121.6zM311.467 192l42.667 384h315.733l44.8-384h-403.2z" />
<glyph unicode="&#xe907;" glyph-name="icon_truck" d="M573.867 755.2c23.467 0 42.667-19.2 42.667-42.667v-320c0-23.467-19.2-42.667-42.667-42.667h-441.6c-23.467 0-42.667 19.2-42.667 42.667v320c0 23.467 19.2 42.667 42.667 42.667h441.6zM846.933 648.533c0 0 32 0 42.667-42.667 6.4-23.467 42.667-128 42.667-128v-234.667c0 0-4.267-21.333-34.133-21.333l-91.733 2.133c0 0-25.6 96-147.2 128 0 2.133 0 298.667 0 298.667h187.733zM742.4 435.2h83.2c23.467 0 42.667 19.2 42.667 42.667l-21.333 85.333c0 23.467-19.2 42.667-42.667 42.667h-64c-23.467 0-42.667-19.2-42.667-42.667v-85.333c2.133-23.467 21.333-42.667 44.8-42.667zM616.533 309.333c0 0-49.067-49.067-64-85.333h-147.2c0 0-4.267 57.6-64 85.333h275.2zM194.133 309.333c0 0-40.533-34.133-42.667-85.333h-64v85.333h106.667zM689.067 281.6c49.067 0 87.467-40.533 87.467-89.6s-40.533-89.6-87.467-89.6c-49.067 0-87.467 40.533-87.467 89.6s38.4 89.6 87.467 89.6zM268.8 281.6c49.067 0 87.467-40.533 87.467-89.6s-40.533-89.6-87.467-89.6c-49.067 0-87.467 40.533-87.467 89.6-2.133 49.067 38.4 89.6 87.467 89.6zM573.867 804.267h-441.6c-51.2 0-91.733-40.533-91.733-91.733v-320c0-12.8 2.133-25.6 6.4-36.267h-6.4v-183.467h91.733c8.533-68.267 66.133-121.6 136.533-121.6s128 53.333 136.533 121.6v0h147.2c8.533-68.267 66.133-121.6 136.533-121.6s128 53.333 136.533 121.6h70.4c55.467 0 81.067 40.533 83.2 68.267l4.267 44.8h-2.133v200.533l-2.133 8.533c0 0-34.133 98.133-40.533 123.733-14.933 61.867-64 78.933-89.6 78.933h-183.467v14.933c0 51.2-42.667 91.733-91.733 91.733v0zM748.8 556.8h49.067l2.133-4.267 17.067-66.133h-66.133v70.4h-2.133z" />
<glyph unicode="&#xe908;" glyph-name="icon_bag-c" d="M748.8 640h-70.4c-2.133 113.067-83.2 170.667-160 170.667s-155.733-53.333-160-170.667h-74.667l-61.867-554.667h590.933l-64 554.667zM518.4 782.933c61.867 0 128-44.8 132.267-142.933h-262.4c2.133 98.133 68.267 142.933 130.133 142.933zM311.467 610.133h411.733l59.733-494.933h-526.933l55.467 494.933zM588.8 544h57.6v-57.6h-57.6v57.6zM386.133 544h57.6v-57.6h-57.6v57.6z" />
<glyph unicode="&#xe909;" glyph-name="icon_bottle-a" d="M676.267 637.867v55.467h29.867c4.267 0 0 25.6 0 59.733v19.2c0 32-25.6 59.733-57.6 59.733h-273.067c-32 0-57.6-25.6-57.6-59.733v-19.2c0-32 0-59.733 0-59.733h32v-55.467c-53.333-14.933-74.667-70.4-83.2-115.2h-4.267v-341.333h2.133v-44.8c0-51.2 42.667-93.867 93.867-93.867h311.467c51.2 0 93.867 42.667 93.867 93.867v352c-2.133 42.667-27.733 128-87.467 149.333zM296.533 492.8h245.333v-279.467h-245.333v277.333c0 0 0 0 0 2.133zM729.6 136.533c0-34.133-27.733-61.867-61.867-61.867h-309.333c-34.133 0-61.867 27.733-61.867 61.867v44.8h277.333v341.333h-275.2c6.4 36.267 25.6 81.067 68.267 87.467l12.8 2.133v76.8h264.533v-76.8l12.8-2.133c46.933-8.533 72.533-83.2 72.533-121.6v-352z" />
<glyph unicode="&#xe90a;" glyph-name="icon_bottle-b" d="M657.067 633.6h-21.333v40.533h83.2c4.267 0 0 27.733 0 61.867v21.333c0 34.133-27.733 61.867-61.867 61.867h-290.133c-34.133 0-61.867-27.733-61.867-61.867v-21.333c0-34.133 0-61.867 0-61.867h83.2v-40.533h-21.333c-91.733 0-104.533-108.8-104.533-145.067 0-19.2 0-373.333 0-373.333 0-44.8 36.267-83.2 83.2-83.2h332.8c44.8 0 83.2 36.267 83.2 83.2v373.333c0 91.733-51.2 145.067-104.533 145.067zM345.6 759.467c0 10.667 8.533 21.333 21.333 21.333h290.133c10.667 0 21.333-8.533 21.333-21.333v-21.333c0-6.4 0-14.933 0-21.333h-332.8v42.667zM718.933 115.2c0-23.467-19.2-40.533-40.533-40.533h-332.8c-23.467 0-40.533 19.2-40.533 40.533v373.333c0 17.067 2.133 104.533 61.867 104.533h61.867v81.067h166.4v-81.067h61.867c10.667 0 23.467-6.4 34.133-17.067 19.2-19.2 29.867-51.2 27.733-87.467v-373.333z" />
<glyph unicode="&#xe90b;" glyph-name="icon_bottle-c" d="M573.867 776.533c25.6 0 46.933-21.333 46.933-46.933s-21.333-46.933-46.933-46.933h23.467l64-102.4c29.867-14.933 51.2-46.933 51.2-83.2v-324.267c0-51.2-40.533-91.733-91.733-91.733h-256c-51.2 0-91.733 40.533-91.733 91.733v326.4c0 36.267 21.333 68.267 51.2 83.2l64 102.4h23.467c-25.6 0-46.933 21.333-46.933 46.933s21.333 46.933 46.933 46.933h162.133zM573.867 823.467h-162.133c-51.2 0-91.733-42.667-91.733-91.733 0-17.067 4.267-34.133 12.8-49.067l-40.533-66.133c-40.533-25.6-64-68.267-64-117.333v-324.267c0-76.8 61.867-138.667 138.667-138.667h256c76.8 0 138.667 61.867 138.667 138.667v324.267c0 49.067-25.6 91.733-64 117.333l-44.8 66.133c8.533 14.933 12.8 29.867 12.8 49.067 0 49.067-40.533 91.733-91.733 91.733v0z" />
<glyph unicode="&#xe90c;" glyph-name="icon_bottle-d" d="M729.6 522.667c-4.267 19.2-8.533 38.4-12.8 55.467-17.067 74.667-27.733 115.2-34.133 138.667h21.333c36.267 0 64 27.733 64 64v21.333c0 36.267-27.733 64-64 64h-384c-36.267 0-64-27.733-64-64v-21.333c0-36.267 27.733-64 64-64h27.733c-8.533-34.133-23.467-102.4-36.267-181.333v-4.267c-89.6-74.667-138.667-187.733-128-296.533 12.8-113.067 119.467-200.533 202.667-200.533h234.667c121.6 0 224 123.733 224 224-2.133 100.267-42.667 196.267-115.2 264.533zM298.667 778.667v21.333c0 12.8 8.533 21.333 21.333 21.333h384c12.8 0 21.333-8.533 21.333-21.333v-21.333c0-12.8-8.533-21.333-21.333-21.333h-384c-12.8 0-21.333 10.667-21.333 21.333zM330.667 531.2c12.8 83.2 29.867 153.6 38.4 185.6h290.133c6.4-19.2 17.067-59.733 36.267-142.933 4.267-17.067 8.533-36.267 12.8-55.467 0 0 0 0 0 0-14.933-4.267-29.867-10.667-44.8-14.933-42.667-17.067-78.933-32-140.8 10.667-59.733 40.533-138.667 27.733-194.133 4.267v0l2.133 12.8zM618.667 53.333h-234.667c-72.533 0-170.667 81.067-181.333 183.467-8.533 78.933 17.067 162.133 70.4 228.267 2.133 0 6.4 0 8.533 2.133 23.467 23.467 147.2 85.333 228.267 27.733 70.4-49.067 117.333-29.867 160-12.8 14.933 6.4 27.733 10.667 40.533 14.933 2.133 0 4.267 2.133 6.4 4.267 66.133-61.867 104.533-151.467 104.533-245.333 0-89.6-93.867-202.667-202.667-202.667zM349.867 183.467c-17.067 0-32-14.933-32-32s14.933-32 32-32c17.067 0 32 14.933 32 32s-14.933 32-32 32zM349.867 140.8c-6.4 0-10.667 4.267-10.667 10.667s4.267 10.667 10.667 10.667c6.4 0 10.667-4.267 10.667-10.667s-4.267-10.667-10.667-10.667zM637.867 140.8c0-11.782-9.551-21.333-21.333-21.333s-21.333 9.551-21.333 21.333c0 11.782 9.551 21.333 21.333 21.333s21.333-9.551 21.333-21.333zM488.533 311.467c-36.267 0-64-27.733-64-64s27.733-64 64-64 64 27.733 64 64-27.733 64-64 64zM488.533 204.8c-23.467 0-42.667 19.2-42.667 42.667s19.2 42.667 42.667 42.667c23.467 0 42.667-19.2 42.667-42.667s-19.2-42.667-42.667-42.667zM648.533 290.133c-17.067 0-32-14.933-32-32s14.933-32 32-32c17.067 0 32 14.933 32 32s-14.933 32-32 32zM648.533 247.467c-6.4 0-10.667 4.267-10.667 10.667s4.267 10.667 10.667 10.667c6.4 0 10.667-4.267 10.667-10.667s-4.267-10.667-10.667-10.667zM723.2 332.8c0-11.782-9.551-21.333-21.333-21.333s-21.333 9.551-21.333 21.333c0 11.782 9.551 21.333 21.333 21.333s21.333-9.551 21.333-21.333zM360.533 394.667c-21.333 8.533-42.667-8.533-42.667-29.867s21.333-38.4 42.667-29.867c4.267-2.133 6.4-2.133 10.667-2.133 17.067 0 32 14.933 32 32 0 21.333-21.333 38.4-42.667 29.867zM371.2 354.133c-2.133 0-2.133 0-4.267 2.133l-6.4 4.267-6.4-4.267c-2.133-2.133-4.267-2.133-4.267-2.133-6.4 0-10.667 4.267-10.667 10.667s4.267 10.667 10.667 10.667c2.133 0 2.133 0 4.267-2.133l6.4-4.267 6.4 4.267c2.133 2.133 4.267 2.133 4.267 2.133 6.4 0 10.667-4.267 10.667-10.667s-4.267-10.667-10.667-10.667z" />
<glyph unicode="&#xe90d;" glyph-name="icon_cake" d="M942.933 136.533h-68.267v270.933c0 32-12.8 51.2-23.467 59.733-23.467 19.2-53.333 17.067-61.867 17.067h-554.667c-34.133 0-57.6-8.533-72.533-23.467-12.8-14.933-12.8-29.867-12.8-36.267v-290.133h-68.267c-12.8 0-21.333-8.533-21.333-21.333s8.533-21.333 21.333-21.333h864c12.8 0 21.333 8.533 21.333 21.333-2.133 12.8-10.667 23.467-23.467 23.467zM234.667 441.6h558.933c4.267 0 21.333 2.133 29.867-6.4 6.4-4.267 8.533-14.933 8.533-27.733v-8.533c-6.4-8.533-27.733-32-61.867-83.2-12.8-19.2-29.867-42.667-40.533-40.533-14.933 0-34.133 36.267-46.933 61.867-25.6 46.933-44.8 76.8-72.533 76.8 0 0 0 0 0 0-23.467 0-44.8-21.333-72.533-74.667-10.667-19.2-34.133-61.867-44.8-61.867v0c-12.8 0-36.267 44.8-46.933 61.867-23.467 44.8-42.667 70.4-64 70.4 0 0 0 0 0 0-23.467 0-42.667-27.733-72.533-91.733-10.667-21.333-25.6-44.8-42.667-42.667-34.133 4.267-66.133 104.533-70.4 121.6l-4.267 29.867c0 6.4 12.8 14.933 42.667 14.933zM192 328.533c14.933-32 34.133-64 57.6-74.667 4.267-2.133 10.667-4.267 14.933-4.267 21.333 0 40.533 19.2 59.733 55.467 12.8 27.733 38.4 78.933 55.467 78.933 0 0 0 0 0 0 14.933 0 38.4-44.8 46.933-59.733 25.6-49.067 42.667-74.667 66.133-74.667v0c21.333 0 38.4 23.467 64 72.533 23.467 42.667 40.533 64 55.467 64v0c17.067 0 38.4-34.133 53.333-64 23.467-44.8 42.667-72.533 66.133-72.533 19.2 0 38.4 17.067 59.733 51.2 19.2 29.867 34.133 49.067 44.8 61.867v-230.4h-644.267v196.267zM379.733 759.467c0-17.673-14.327-32-32-32s-32 14.327-32 32c0 17.673 14.327 32 32 32s32-14.327 32-32zM326.4 676.267v-157.867c0-12.8 8.533-21.333 21.333-21.333s21.333 8.533 21.333 21.333v157.867c0 12.8-8.533 21.333-21.333 21.333s-21.333-10.667-21.333-21.333zM544 759.467c0-17.673-14.327-32-32-32s-32 14.327-32 32c0 17.673 14.327 32 32 32s32-14.327 32-32zM516.267 697.6c-12.8 0-21.333-8.533-21.333-21.333v-157.867c0-12.8 8.533-21.333 21.333-21.333s21.333 8.533 21.333 21.333v157.867c0 10.667-10.667 21.333-21.333 21.333zM714.667 759.467c0-17.673-14.327-32-32-32s-32 14.327-32 32c0 17.673 14.327 32 32 32s32-14.327 32-32zM661.333 676.267v-157.867c0-12.8 8.533-21.333 21.333-21.333s21.333 8.533 21.333 21.333v157.867c0 12.8-8.533 21.333-21.333 21.333s-21.333-10.667-21.333-21.333z" />
<glyph unicode="&#xe90e;" glyph-name="icon_calendar" d="M701.867 486.4c-4.267 4.267-12.8 4.267-19.2-2.133l-202.667-234.667-113.067 96c-6.4 4.267-14.933 4.267-19.2-2.133l-17.067-21.333c-4.267-6.4-4.267-14.933 2.133-19.2l142.933-123.733c6.4-4.267 14.933-4.267 19.2 2.133l230.4 266.667c4.267 6.4 4.267 14.933-2.133 19.2l-21.333 19.2zM251.733 785.067h36.267c10.667 0 19.2 8.533 19.2 19.2v72.533c0 10.667-8.533 19.2-17.067 19.2h-36.267c-12.8 0-19.2-8.533-19.2-19.2v-74.667c0-8.533 6.4-17.067 17.067-17.067zM864 859.733h-36.267v-55.467c0-29.867-25.6-55.467-55.467-55.467h-36.267c-29.867 0-55.467 25.6-55.467 55.467v55.467h-334.933v-55.467c0-29.867-25.6-55.467-55.467-55.467h-36.267c-29.867 0-55.467 25.6-55.467 55.467v55.467h-38.4c-40.533 0-74.667-34.133-74.667-74.667v-704c0-40.533 34.133-74.667 74.667-74.667h704c40.533 0 74.667 34.133 74.667 74.667v704c0 40.533-34.133 74.667-74.667 74.667zM864 153.6c0-40.533-34.133-74.667-74.667-74.667h-554.667c-40.533 0-74.667 34.133-74.667 74.667v334.933c0 40.533 34.133 74.667 74.667 74.667h554.667c40.533 0 74.667-34.133 74.667-74.667v-334.933zM733.867 785.067h36.267c10.667 0 19.2 8.533 19.2 19.2v72.533c0 10.667-6.4 19.2-17.067 19.2h-36.267c-10.667 0-19.2-8.533-19.2-19.2v-74.667c0-8.533 8.533-17.067 17.067-17.067z" />
<glyph unicode="&#xe90f;" glyph-name="icon_card" d="M829.867 695.467h-618.667c-46.933 0-85.333-38.4-85.333-85.333v-326.4c0-46.933 38.4-85.333 85.333-85.333h616.533c46.933 0 85.333 38.4 85.333 85.333v326.4c2.133 46.933-36.267 85.333-83.2 85.333zM881.067 285.867c0-27.733-23.467-51.2-51.2-51.2h-618.667c-27.733 0-51.2 23.467-51.2 51.2v162.133h718.933v-162.133zM881.067 533.333h-721.067v76.8c0 29.867 23.467 51.2 51.2 51.2h616.533c27.733 0 51.2-23.467 51.2-51.2v-76.8z" />
<glyph unicode="&#xe910;" glyph-name="icon_cart-a" d="M490.667 887.467c-234.667 0-426.667-192-426.667-426.667s192-426.667 426.667-426.667 426.667 192 426.667 426.667c0 236.8-192 426.667-426.667 426.667zM396.8 194.133c-21.333 0-40.533 17.067-40.533 40.533 0 21.333 17.067 40.533 40.533 40.533s40.533-17.067 40.533-40.533c0-21.333-17.067-40.533-40.533-40.533zM637.867 194.133c-21.333 0-40.533 17.067-40.533 40.533 0 21.333 17.067 40.533 40.533 40.533s40.533-17.067 40.533-40.533c0-21.333-19.2-40.533-40.533-40.533zM704 435.2c0 0-23.467-49.067-81.067-53.333h-238.933v-53.333h320v-25.6c0 0-345.6-10.667-345.6 0s-25.6 12.8-25.6 106.667l-25.6 266.667h-81.067l25.6 53.333c0 0 72.533-6.4 81.067-53.333l426.667-25.6-55.467-215.467z" />
<glyph unicode="&#xe911;" glyph-name="icon_cart-b" d="M721.067 334.933c85.333 4.267 121.6 81.067 121.6 81.067l81.067 324.267-648.533 40.533c-8.533 72.533-121.6 81.067-121.6 81.067l-40.533-81.067h121.6l40.533-405.333c0-142.933 40.533-147.2 40.533-162.133s526.933 0 526.933 0v40.533h-486.4v81.067h364.8zM377.6 172.8c-34.133 0-59.733-27.733-59.733-61.867s27.733-59.733 59.733-59.733c34.133 0 61.867 27.733 61.867 59.733-2.133 36.267-27.733 61.867-61.867 61.867zM742.4 172.8c-34.133 0-61.867-27.733-61.867-61.867s27.733-59.733 61.867-59.733c34.133 0 61.867 27.733 61.867 59.733-2.133 36.267-27.733 61.867-61.867 61.867z" />
<glyph unicode="&#xe912;" glyph-name="icon_clock" d="M503.467 8.533c234.667 0 426.667 192 426.667 426.667s-192 426.667-426.667 426.667c-234.667 0-426.667-192-426.667-426.667s192-426.667 426.667-426.667zM682.667 409.6h-153.6c0-14.933-10.667-25.6-25.6-25.6s-25.6 10.667-25.6 25.6c-14.933 0-25.6 10.667-25.6 25.6s10.667 25.6 25.6 25.6v204.8c0 14.933 10.667 25.6 25.6 25.6s25.6-10.667 25.6-25.6v-204.8h153.6c14.933 0 25.6-10.667 25.6-25.6 0-12.8-12.8-25.6-25.6-25.6z" />
<glyph unicode="&#xe913;" glyph-name="icon_close-a" d="M812.8 674.133l-241.067-241.067 226.133-226.133c17.067-17.067 17.067-42.667 0-59.733s-42.667-17.067-59.733 0l-226.133 226.133-226.133-226.133c-17.067-17.067-42.667-17.067-59.733 0s-17.067 42.667 0 59.733l226.133 226.133-241.067 241.067c-17.067 17.067-17.067 42.667 0 59.733s42.667 17.067 59.733 0l241.067-241.067 241.067 241.067c17.067 17.067 42.667 17.067 59.733 0 17.067-14.933 17.067-42.667 0-59.733z" />
<glyph unicode="&#xe914;" glyph-name="icon_close-b" d="M625.067 469.333l172.8-172.8c29.867-29.867 29.867-76.8 0-104.533l-14.933-14.933c-29.867-29.867-76.8-29.867-104.533 0l-172.8 172.8-187.733-187.733c-29.867-29.867-76.8-29.867-104.533 0l-14.933 14.933c-29.867 29.867-29.867 76.8 0 104.533l185.6 187.733-187.733 187.733c-29.867 29.867-29.867 76.8 0 104.533l14.933 14.933c29.867 29.867 76.8 29.867 104.533 0l187.733-187.733 172.8 172.8c29.867 29.867 76.8 29.867 104.533 0l14.933-14.933c29.867-29.867 29.867-76.8 0-104.533l-170.667-172.8z" />
<glyph unicode="&#xe915;" glyph-name="icon_coin-a" d="M524.8 842.667c-217.6 0-394.667-177.067-394.667-394.667s177.067-394.667 394.667-394.667c217.6 0 394.667 177.067 394.667 394.667s-177.067 394.667-394.667 394.667zM524.8 98.133c-192 0-349.867 155.733-349.867 349.867 0 192 155.733 349.867 349.867 349.867 192 0 349.867-157.867 349.867-349.867s-157.867-349.867-349.867-349.867zM674.133 612.267h-34.133l-117.333-168.533-115.2 168.533h-32l134.4-187.733v-21.333h-119.467v-21.333h119.467v-119.467h25.6v119.467h119.467v21.333h-119.467v19.2z" />
<glyph unicode="&#xe916;" glyph-name="icon_coin-b" d="M512 896c-247.467 0-448-200.533-448-448s200.533-448 448-448c247.467 0 448 200.533 448 448s-200.533 448-448 448zM512 236.8c-100.267 0-181.333 29.867-181.333 66.133 0 14.933 12.8 27.733 32 38.4 17.067-29.867 76.8-51.2 149.333-51.2s134.4 21.333 149.333 51.2c21.333-10.667 32-23.467 32-38.4 0-36.267-81.067-66.133-181.333-66.133zM512 330.667c-100.267 0-181.333 29.867-181.333 66.133 0 14.933 12.8 27.733 32 38.4 17.067-29.867 76.8-51.2 149.333-51.2s134.4 21.333 149.333 51.2c21.333-10.667 32-23.467 32-38.4 0-36.267-81.067-66.133-181.333-66.133zM512 422.4c-100.267 0-181.333 29.867-181.333 66.133 0 14.933 12.8 27.733 32 38.4 17.067-29.867 76.8-51.2 149.333-51.2s134.4 21.333 149.333 51.2c21.333-10.667 32-23.467 32-38.4 0-36.267-81.067-66.133-181.333-66.133zM512 524.8c-100.267 0-181.333 29.867-181.333 66.133s81.067 66.133 181.333 66.133c100.267 0 181.333-29.867 181.333-66.133s-81.067-66.133-181.333-66.133z" />
<glyph unicode="&#xe917;" glyph-name="icon_coin-c" d="M714.667 550.4c-104.533 0-215.467-29.867-215.467-113.067v-281.6c0-61.867 74.667-98.133 200.533-98.133 100.267 0 200.533 29.867 200.533 98.133v281.6c-2.133 59.733-89.6 113.067-185.6 113.067zM714.667 488.533c72.533 0 119.467-38.4 121.6-51.2v-32l-12.8 12.8c0 0-38.4-38.4-125.867-38.4-93.867 0-123.733 38.4-123.733 38.4l-10.667-8.533v29.867c-2.133 25.6 66.133 49.067 151.467 49.067zM697.6 349.867c78.933 0 121.6 27.733 138.667 42.667v-72.533l-17.067 14.933c0 0-38.4-38.4-125.867-38.4-93.867 0-123.733 38.4-123.733 38.4l-8.533-6.4v61.867c17.067-14.933 57.6-40.533 136.533-40.533zM561.067 326.4v0zM561.067 302.933c19.2-14.933 59.733-36.267 132.267-36.267 85.333 0 130.133 34.133 142.933 44.8v-70.4l-12.8 12.8c0 0-38.4-38.4-125.867-38.4-93.867 0-123.733 38.4-123.733 38.4l-10.667-8.533v57.6zM699.733 121.6c-91.733 0-136.533 21.333-136.533 34.133v70.4c17.067-14.933 57.6-38.4 136.533-38.4 81.067 0 123.733 29.867 138.667 42.667v-74.667c-6.4-12.8-57.6-34.133-138.667-34.133zM418.133 471.467c2.133 0 2.133 0 4.267 0 8.533-2.133 21.333-2.133 44.8-2.133 8.533 0 14.933 6.4 14.933 14.933s-6.4 14.933-14.933 14.933c-17.067 0-27.733 0-32 0-4.267 2.133-10.667 2.133-14.933 2.133-166.4 0-219.733 66.133-219.733 68.267-6.4 6.4-10.667 6.4-14.933 6.4v98.133c25.6-23.467 93.867-68.267 232.533-68.267 145.067 0 219.733 57.6 238.933 74.667 0-25.6 0-61.867 2.133-115.2h61.867v177.067c0 70.4-125.867 123.733-281.6 123.733-140.8 0-311.467-44.8-311.467-123.733v-503.467c0-83.2 89.6-136.533 311.467-136.533 10.667 0 21.333 0 32 0v68.267c-10.667 0-21.333 0-32 0-113.067 0-253.867 29.867-253.867 91.733v145.067c21.333-21.333 87.467-72.533 236.8-72.533 0 0 0 0 0 0 27.733 0 38.4-2.133 38.4-2.133s0 0 0 0c2.133 0 2.133 0 4.267 0 6.4 0 12.8 4.267 14.933 12.8s-4.267 17.067-12.8 19.2c-2.133 0-12.8 2.133-44.8 2.133 0 0 0 0 0 0-166.4 0-219.733 66.133-219.733 68.267-4.267 6.4-10.667 6.4-17.067 4.267v98.133c25.6-21.333 91.733-66.133 232.533-66.133zM407.467 812.8c206.933 0 249.6-53.333 249.6-83.2 0-4.267 0-8.533 0-17.067-6.4 2.133-12.8 2.133-17.067-4.267-2.133-2.133-66.133-70.4-221.867-70.4-166.4 0-219.733 66.133-219.733 68.267-2.133 4.267-8.533 6.4-12.8 6.4v8.533c0 38.4 76.8 91.733 221.867 91.733z" />
<glyph unicode="&#xe918;" glyph-name="icon_coin-d" d="M501.333 669.867c-119.467 0-217.6-98.133-217.6-217.6s98.133-217.6 217.6-217.6 217.6 98.133 217.6 217.6c0 119.467-98.133 217.6-217.6 217.6zM546.133 362.667c-8.533-6.4-17.067-10.667-29.867-12.8v-32h-25.6v29.867c0 0 0 0 0 0-21.333 0-40.533 4.267-53.333 10.667v40.533c14.933-12.8 34.133-19.2 53.333-19.2 10.667 0 19.2 2.133 25.6 6.4s8.533 8.533 8.533 14.933c0 4.267-2.133 10.667-6.4 14.933s-17.067 10.667-36.267 19.2c-29.867 12.8-44.8 32-44.8 55.467 0 17.067 6.4 32 21.333 42.667 8.533 6.4 21.333 10.667 34.133 12.8v38.4h25.6v-38.4c17.067 0 29.867-2.133 40.533-6.4v-38.4c-12.8 8.533-27.733 12.8-44.8 12.8-10.667 0-19.2-2.133-23.467-6.4-6.4-4.267-8.533-8.533-8.533-14.933 0-4.267 2.133-8.533 6.4-12.8s14.933-10.667 29.867-17.067c19.2-8.533 32-17.067 38.4-25.6s10.667-19.2 10.667-32c0-19.2-8.533-32-21.333-42.667zM501.333 932.267c-264.533 0-480-215.467-480-480 0-266.667 215.467-482.133 480-482.133s480 215.467 480 482.133c0 264.533-215.467 480-480 480zM501.333 215.467c-130.133 0-236.8 106.667-236.8 236.8s106.667 236.8 236.8 236.8 236.8-106.667 236.8-236.8c0-132.267-106.667-236.8-236.8-236.8z" />
<glyph unicode="&#xe919;" glyph-name="icon_coin-e" d="M748.8 281.6c-23.467-42.667-108.8-72.533-213.333-72.533s-189.867 32-213.333 72.533c-29.867-14.933-46.933-34.133-46.933-53.333 0-53.333 115.2-96 260.267-96 142.933 0 260.267 42.667 260.267 96 0 19.2-17.067 38.4-46.933 53.333zM537.6 731.733c142.933 0 260.267-42.667 260.267-96s-115.2-96-260.267-96c-142.933 0-260.267 42.667-260.267 96s115.2 96 260.267 96zM748.8 411.733c-23.467-42.667-108.8-72.533-213.333-72.533s-189.867 32-213.333 72.533c-29.867-14.933-46.933-34.133-46.933-53.333 0-53.333 115.2-96 260.267-96 142.933 0 260.267 42.667 260.267 96 0 19.2-17.067 38.4-46.933 53.333zM748.8 544c-23.467-42.667-108.8-72.533-213.333-72.533s-189.867 32-213.333 72.533c-27.733-14.933-44.8-34.133-44.8-53.333 0-53.333 115.2-96 260.267-96 142.933 0 260.267 42.667 260.267 96-2.133 19.2-19.2 38.4-49.067 53.333z" />
<glyph unicode="&#xe91a;" glyph-name="icon_coin-f" d="M614.4 420.267c-12.8 17.067-38.4 34.133-74.667 49.067-29.867 12.8-51.2 23.467-57.6 32-8.533 8.533-12.8 17.067-12.8 25.6 0 12.8 6.4 21.333 17.067 27.733s27.733 10.667 46.933 10.667c32 0 61.867-8.533 85.333-25.6v72.533c-21.333 8.533-46.933 12.8-78.933 12.8v72.533h-49.067v-74.667c-25.6-4.267-49.067-12.8-66.133-25.6-25.6-19.2-38.4-44.8-38.4-78.933 0-46.933 27.733-81.067 85.333-104.533 36.267-14.933 57.6-27.733 66.133-36.267s12.8-17.067 12.8-27.733c0-10.667-4.267-21.333-17.067-27.733-10.667-6.4-25.6-10.667-46.933-10.667-38.4 0-70.4 12.8-100.267 36.267v-78.933c27.733-12.8 61.867-19.2 102.4-19.2 0 0 0 0 0 0v-57.6h49.067v64c23.467 4.267 42.667 10.667 57.6 23.467 25.6 19.2 36.267 44.8 36.267 81.067 4.267 21.333-2.133 42.667-17.067 59.733zM512-2.133c-247.467 0-448 200.533-448 448s200.533 448 448 448c247.467 0 448-200.533 448-448s-200.533-448-448-448zM512 859.733c-228.267 0-413.867-185.6-413.867-413.867s185.6-413.867 413.867-413.867 413.867 185.6 413.867 413.867c0 228.267-185.6 413.867-413.867 413.867z" />
<glyph unicode="&#xe91b;" glyph-name="icon_crown" d="M744.533 531.2l-234.667 311.467-196.267-313.6-206.933 209.067v-684.8h810.667v693.333l-172.8-215.467zM878.933 91.733h-733.867v194.133h733.867v-194.133zM878.933 324.267h-733.867v320l177.067-177.067 192 305.067 230.4-307.2 136.533 170.667v-311.467zM317.867 217.6h76.8v-76.8h-76.8v76.8zM627.2 217.6h76.8v-76.8h-76.8v76.8zM473.6 217.6h76.8v-76.8h-76.8v76.8z" />
<glyph unicode="&#xe91c;" glyph-name="icon_diamonds" d="M682.667 827.733h-360.533l-202.667-270.933 398.933-499.2 398.933 499.2-234.667 270.933zM196.267 556.8l155.733 211.2h300.8l185.6-211.2-320-403.2-322.133 403.2zM642.133 552.533l-128-168.533h-6.4l-128 168.533h-85.333l170.667-219.733h89.6l172.8 219.733z" />
<glyph unicode="&#xe91d;" glyph-name="icon_down-b" d="M806.4 650.667l38.4-38.4-330.667-332.8-38.4 38.4-292.267 294.4 38.4 38.4 292.267-292.267 292.267 292.267z" />
<glyph unicode="&#xe91e;" glyph-name="icon_edit-a" d="M953.6 386.133l-64 64c-8.533 8.533-19.2 12.8-29.867 12.8-8.533 0-19.2-4.267-25.6-10.667l-51.2-51.2-202.667-204.8c-2.133-4.267-4.267-8.533-4.267-10.667l-34.133-121.6c0-2.133-2.133-4.267-2.133-8.533 0-10.667 10.667-21.333 23.467-21.333 2.133 0 4.267 0 6.4 0l119.467 34.133c4.267 2.133 6.4 2.133 10.667 4.267l204.8 206.933 49.067 51.2c6.4 6.4 10.667 14.933 10.667 25.6 0 12.8-2.133 23.467-10.667 29.867zM672 113.067l-74.667-21.333 21.333 76.8 183.467 185.6 53.333-53.333-183.467-187.733zM887.467 330.667l-53.333 53.333 29.867 29.867 53.333-53.333-29.867-29.867zM642.133 486.4h-356.267c-12.8 0-23.467-10.667-23.467-23.467s10.667-23.467 23.467-23.467h356.267c12.8 0 23.467 10.667 23.467 23.467-2.133 14.933-10.667 23.467-23.467 23.467zM663.467 360.533c0 12.8-10.667 23.467-23.467 23.467h-354.133c-12.8 0-23.467-10.667-23.467-23.467s10.667-23.467 23.467-23.467h356.267c12.8 0 21.333 10.667 21.333 23.467zM450.133 281.6h-164.267c-12.8 0-23.467-10.667-23.467-23.467s10.667-23.467 23.467-23.467h164.267c12.8 0 23.467 10.667 23.467 23.467s-10.667 23.467-23.467 23.467zM450.133 177.067h-164.267c-12.8 0-23.467-10.667-23.467-23.467s10.667-23.467 23.467-23.467h164.267c12.8 0 23.467 10.667 23.467 23.467s-10.667 23.467-23.467 23.467zM228.267 85.333v753.067c0 2.133 2.133 4.267 4.267 4.267h170.667v-247.467c0-27.733 21.333-51.2 49.067-51.2h245.333v-140.8h46.933v187.733l-296.533 296.533h-215.467c-14.933 0-25.6-4.267-36.267-14.933-8.533-8.533-12.8-19.2-12.8-34.133v-753.067c0-27.733 21.333-51.2 49.067-51.2h270.933v46.933h-270.933c-2.133 0-4.267 2.133-4.267 4.267zM448 823.467l230.4-232.533h-226.133c-2.133 0-4.267 2.133-4.267 4.267v228.267z" />
<glyph unicode="&#xe91f;" glyph-name="icon_edit-b" d="M861.867 170.667c0-36.267-29.867-64-64-64h-580.267c-36.267 0-64 29.867-64 64v544c0 36.267 29.867 64 64 64h388.267l2.133 2.133c6.4 14.933 6.4 32 0 44.8v0h-390.4c-61.867 0-113.067-51.2-113.067-113.067v-541.867c0-61.867 51.2-113.067 113.067-113.067h580.267c61.867 0 113.067 51.2 113.067 113.067v345.6l-12.8 6.4c-8.533 4.267-19.2 4.267-27.733 0l-8.533-4.267v-347.733zM330.667 258.133l196.267 59.733 369.067 369.067c32 32 32 83.2 0 113.067l-21.333 21.333c-32 32-83.2 32-113.067 0l-369.067-366.933-61.867-196.267zM795.733 789.333c12.8 12.8 34.133 12.8 44.8 0l21.333-21.333c12.8-12.8 12.8-34.133 0-44.8l-29.867-34.133-68.267 68.267 32 32zM729.6 723.2l68.267-68.267-294.4-292.267-68.267 68.267 294.4 292.267zM422.4 386.133l38.4-38.4-55.467-17.067 17.067 55.467z" />
<glyph unicode="&#xe920;" glyph-name="icon_factory" d="M936.533 597.333l-87.467 219.733-10.667 27.733h-650.667l-10.667-27.733-87.467-219.733-25.6-59.733h21.333v-482.133h221.867v285.867h174.933v-285.867h458.667v482.133h21.333l-25.6 59.733zM896 100.267h-371.2v283.733h-264.533v-283.733h-130.133v437.333h765.867v-437.333zM130.133 582.4l87.467 219.733h590.933l87.467-219.733h-765.867zM736 439.467h87.467v-87.467h-87.467v87.467zM736 285.867h87.467v-87.467h-87.467v87.467zM582.4 285.867h87.467v-87.467h-87.467v87.467zM582.4 439.467h87.467v-87.467h-87.467v87.467z" />
<glyph unicode="&#xe921;" glyph-name="icon_female" d="M817.067 535.467c0 153.6-123.733 279.467-279.467 279.467-153.6 0-279.467-123.733-279.467-279.467 0-145.067 110.933-264.533 251.733-277.333v-40.533h-138.667c-4.267 0-6.4-2.133-6.4-6.4v-40.533c0-4.267 2.133-6.4 6.4-6.4h140.8v-100.267c0-4.267 2.133-6.4 6.4-6.4h40.533c4.267 0 6.4 2.133 6.4 6.4v100.267h138.667c4.267 0 6.4 2.133 6.4 6.4v40.533c0 4.267-2.133 6.4-6.4 6.4h-138.667v40.533c140.8 14.933 251.733 132.267 251.733 277.333zM537.6 305.067c-128 0-230.4 104.533-230.4 230.4s102.4 232.533 230.4 232.533 230.4-104.533 230.4-230.4-102.4-232.533-230.4-232.533z" />
<glyph unicode="&#xe922;" glyph-name="icon_fold" d="M249.6 93.867l53.333-51.2 209.067 206.933 204.8-206.933 57.6 57.6-206.933 204.8-53.333 53.333-55.467-55.467zM249.6 567.467l53.333-53.333 209.067 209.067 204.8-206.933 57.6 55.467-260.267 260.267-55.467-55.467v-2.133z" />
<glyph unicode="&#xe923;" glyph-name="icon_game" d="M362.667 462.933h-68.267v68.267c0 6.4-4.267 10.667-10.667 10.667h-19.2c-6.4 0-10.667-4.267-10.667-10.667v-68.267h-66.133c-6.4 0-10.667-4.267-10.667-10.667v-19.2c0-6.4 4.267-10.667 10.667-10.667h68.267v-68.267c0-6.4 4.267-10.667 10.667-10.667h19.2c6.4 0 10.667 4.267 10.667 10.667v68.267h66.133c6.4 0 10.667 4.267 10.667 10.667v19.2c-2.133 6.4-6.4 10.667-10.667 10.667zM642.133 384c-21.333 0-38.4-17.067-38.4-38.4s17.067-38.4 38.4-38.4c21.333 0 38.4 17.067 38.4 38.4 2.133 21.333-17.067 38.4-38.4 38.4zM721.067 462.933c-21.333 0-38.4-17.067-38.4-38.4s17.067-38.4 38.4-38.4 38.4 17.067 38.4 38.4-17.067 38.4-38.4 38.4zM642.133 462.933c21.333 0 38.4 17.067 38.4 38.4s-17.067 38.4-38.4 38.4c-21.333 0-38.4-17.067-38.4-38.4s17.067-38.4 38.4-38.4zM565.333 462.933c-21.333 0-38.4-17.067-38.4-38.4s17.067-38.4 38.4-38.4 38.4 17.067 38.4 38.4-17.067 38.4-38.4 38.4zM550.4 285.867v0c-19.2 2.133-172.8 8.533-200.533 0l-4.267-2.133c-34.133-29.867-87.467-76.8-108.8-91.733-4.267 0-8.533-2.133-14.933-6.4-19.2-14.933-78.933-53.333-117.333-36.267-17.067 6.4-27.733 23.467-34.133 51.2-19.2 87.467-12.8 136.533 19.2 285.867 17.067 81.067 66.133 145.067 125.867 168.533 38.4 14.933 78.933 8.533 110.933-17.067 100.267-78.933 209.067-46.933 245.333-19.2 19.2 14.933 70.4 53.333 123.733 36.267 46.933-14.933 83.2-68.267 110.933-160v-2.133c0-2.133 0-2.133 0-4.267l19.2-72.533c2.133-4.267 6.4-8.533 10.667-8.533 0 0 2.133 0 2.133 0 6.4 2.133 8.533 6.4 8.533 12.8l-17.067 70.4c0 2.133-2.133 2.133-2.133 4.267v2.133c-29.867 98.133-72.533 155.733-123.733 172.8-61.867 21.333-119.467-23.467-140.8-40.533-32-23.467-132.267-51.2-221.867 19.2-38.4 29.867-85.333 38.4-130.133 21.333-66.133-23.467-119.467-93.867-138.667-181.333-29.867-145.067-38.4-200.533-19.2-294.4 6.4-34.133 21.333-55.467 44.8-64 8.533-4.267 19.2-6.4 29.867-6.4 40.533 0 85.333 27.733 106.667 40.533 8.533-2.133 25.6 12.8 125.867 100.267 23.467 4.267 123.733 2.133 187.733 0 32-10.667 91.733-70.4 110.933-93.867 4.267-4.267 10.667-4.267 12.8 0 4.267 4.267 4.267 10.667 0 12.8-4.267 4.267-76.8 89.6-121.6 102.4zM915.2 268.8c-38.4 0-78.933-10.667-78.933-42.667v-104.533c0-23.467 27.733-36.267 74.667-36.267 36.267 0 74.667 10.667 74.667 36.267v104.533c-2.133 21.333-34.133 42.667-70.4 42.667zM857.6 226.133c0 10.667 25.6 19.2 57.6 19.2 27.733 0 44.8-14.933 44.8-19.2v-12.8l-4.267 4.267c0 0-14.933-14.933-46.933-14.933-34.133 0-46.933 14.933-46.933 14.933l-4.267-2.133v10.667zM857.6 209.067c6.4-6.4 21.333-14.933 51.2-14.933s44.8 10.667 51.2 14.933v-27.733l-6.4 6.4c0 0-14.933-14.933-46.933-14.933-34.133 0-46.933 14.933-46.933 14.933l-2.133-2.133v23.467zM857.6 177.067c6.4-6.4 21.333-12.8 49.067-12.8 32 0 49.067 12.8 53.333 17.067v-25.6l-4.267 4.267c0 0-14.933-14.933-46.933-14.933-34.133 0-46.933 14.933-46.933 14.933l-4.267-2.133v19.2zM908.8 108.8c-34.133 0-51.2 8.533-51.2 12.8v25.6c6.4-6.4 21.333-14.933 51.2-14.933s46.933 10.667 51.2 14.933v-27.733c-2.133-2.133-21.333-10.667-51.2-10.667zM804.267 238.933c0 0 2.133 0 0 0 4.267 0 8.533 0 17.067 0 4.267 0 6.4 2.133 6.4 6.4s-2.133 6.4-6.4 6.4c-6.4 0-10.667 0-12.8 0s-4.267 0-6.4 0c-61.867 0-81.067 25.6-81.067 25.6s-2.133 0-4.267 0v36.267c8.533-8.533 34.133-25.6 87.467-25.6s81.067 21.333 89.6 27.733c0-8.533 0-23.467 0-42.667h23.467v68.267c0 25.6-46.933 46.933-104.533 46.933-53.333 0-115.2-17.067-115.2-46.933v-187.733c0-32 34.133-51.2 115.2-51.2 4.267 0 8.533 0 10.667 0v25.6c-4.267 0-8.533 0-10.667 0-42.667 0-93.867 10.667-93.867 34.133v53.333c6.4-8.533 32-27.733 87.467-27.733 0 0 0 0 0 0 10.667 0 14.933 0 14.933 0s0 0 2.133 0 4.267 2.133 6.4 4.267c0 2.133-2.133 6.4-4.267 6.4 0 0-4.267 0-17.067 0 0 0 0 0 0 0-61.867 0-81.067 25.6-81.067 25.6-2.133 2.133-4.267 2.133-6.4 2.133v36.267c6.4-6.4 32-23.467 83.2-23.467zM716.8 332.8c0 14.933 27.733 34.133 83.2 34.133 76.8 0 93.867-19.2 93.867-32 0-2.133 0-4.267 0-6.4-2.133 0-4.267 0-6.4 0 0 0-25.6-25.6-83.2-25.6-61.867 0-81.067 25.6-81.067 25.6-2.133 2.133-2.133 2.133-4.267 2.133v2.133z" />
<glyph unicode="&#xe924;" glyph-name="icon_gift-a" d="M761.6 665.6h-72.533c29.867 32 49.067 68.267 51.2 100.267 2.133 21.333-4.267 40.533-14.933 53.333-36.267 40.533-123.733 25.6-192-32-19.2-17.067-36.267-34.133-51.2-55.467-12.8 19.2-29.867 38.4-49.067 53.333-40.533 34.133-87.467 55.467-125.867 55.467-25.6 0-44.8-8.533-57.6-23.467-17.067-21.333-21.333-51.2-6.4-87.467 8.533-23.467 23.467-44.8 42.667-66.133h-70.4c-53.333 0-96-42.667-96-96v-32c0-42.667 27.733-76.8 64-89.6v-311.467c0-44.8 36.267-81.067 81.067-81.067h450.133c44.8 0 81.067 36.267 81.067 81.067v311.467c38.4 12.8 64 49.067 64 89.6v32c-2.133 55.467-44.8 98.133-98.133 98.133zM554.667 763.733c36.267 29.867 76.8 46.933 110.933 46.933 10.667 0 27.733-2.133 36.267-12.8 6.4-6.4 8.533-17.067 8.533-29.867-2.133-32-27.733-70.4-66.133-102.4h-157.867l12.8 27.733c10.667 25.6 29.867 49.067 55.467 70.4zM273.067 742.4c-8.533 23.467-8.533 42.667 2.133 55.467 8.533 10.667 23.467 12.8 34.133 12.8 32 0 72.533-17.067 106.667-46.933 23.467-21.333 42.667-44.8 53.333-68.267l12.8-27.733h-151.467c-27.733 21.333-46.933 49.067-57.6 74.667zM149.333 537.6v32c0 36.267 29.867 64 64 64h241.067v-160h-243.2c-32-2.133-61.867 27.733-61.867 64zM215.467 134.4v290.133c0 6.4 2.133 10.667 2.133 17.067h238.933v-356.267h-194.133c-25.6 0-46.933 21.333-46.933 49.067zM761.6 134.4c0-25.6-21.333-49.067-49.067-49.067h-194.133v354.133h238.933c2.133-4.267 2.133-10.667 2.133-17.067v-288zM825.6 537.6c0-36.267-29.867-64-64-64h-243.2v160h241.067c36.267 0 64-29.867 64-64v-32z" />
<glyph unicode="&#xe925;" glyph-name="icon_gift-b" d="M435.2 629.333v-49.067h61.867c-21.333 32-46.933 44.8-61.867 49.067zM601.6 629.333c-14.933-4.267-40.533-17.067-61.867-49.067h61.867v49.067zM492.8 482.133h46.933v-209.067h-46.933v209.067zM302.933 554.667h170.667v-55.467h-170.667v55.467zM492.8 554.667h46.933v-55.467h-46.933v55.467zM512 930.133c-264.533 0-480-215.467-480-482.133s215.467-482.133 480-482.133c264.533 0 480 215.467 480 482.133s-215.467 482.133-480 482.133zM740.267 482.133h-36.267v-192c0-25.6-21.333-44.8-44.8-44.8h-292.267c-25.6 0-44.8 21.333-44.8 44.8v192h-36.267v91.733h132.267v78.933l10.667-2.133c2.133 0 57.6-8.533 91.733-70.4 34.133 61.867 89.6 70.4 91.733 70.4l10.667 2.133v-78.933h119.467v-91.733zM556.8 554.667h164.267v-55.467h-164.267v55.467zM473.6 482.133h-134.4v-189.867c0-14.933 12.8-27.733 27.733-27.733h106.667v217.6zM556.8 262.4h100.267c14.933 0 27.733 12.8 27.733 27.733v189.867h-128v-217.6z" />
<glyph unicode="&#xe926;" glyph-name="icon_gift-c" d="M970.667 682.667h-238.933v157.867l-21.333-2.133c-4.267 0-115.2-17.067-185.6-140.8-70.4 125.867-179.2 140.8-185.6 140.8l-21.333 2.133v-157.867h-264.533v-183.467h72.533v-386.133c0-51.2 40.533-91.733 91.733-91.733h586.667c51.2 0 91.733 40.533 91.733 91.733v386.133h72.533v183.467zM567.467 535.467h-96v110.933h96v-110.933zM471.467 76.8v420.267h96v-422.4h-96zM693.333 797.867v-100.267h-125.867c42.667 66.133 98.133 89.6 125.867 100.267zM356.267 797.867c29.867-8.533 83.2-34.133 125.867-100.267h-125.867v100.267zM89.6 646.4h345.6v-110.933h-345.6v110.933zM164.267 113.067v384h270.933v-439.467h-217.6c-29.867 0-53.333 23.467-53.333 55.467zM859.733 113.067c0-29.867-25.6-55.467-55.467-55.467h-202.667v439.467h256v-384zM934.4 535.467h-330.667v110.933h330.667v-110.933z" />
<glyph unicode="&#xe927;" glyph-name="icon_gnqbj" d="M354.133 467.2h-89.6v-61.867h-59.733v-89.6h59.733v-59.733h89.6v59.733h59.733v89.6h-59.733v61.867zM849.067 251.733l-183.467 40.533c-6.4 2.133-14.933 2.133-21.333 2.133l-25.6 74.667c-12.8 36.267-51.2 55.467-85.333 42.667-4.267-2.133-6.4-2.133-10.667-4.267v125.867c0 55.467-40.533 100.267-93.867 106.667v64h25.6v96h-288v-96h25.6v-64c-53.333-6.4-93.867-53.333-93.867-106.667v-341.333c0-59.733 49.067-108.8 108.8-108.8h209.067c59.733 0 108.8 49.067 108.8 108.8v32l25.6-76.8c12.8-36.267 51.2-55.467 85.333-42.667 21.333 6.4 38.4 23.467 44.8 44.8l140.8-29.867c36.267-8.533 72.533 14.933 81.067 51.2 6.4 36.267-17.067 72.533-53.333 81.067zM480 192c0-36.267-29.867-66.133-66.133-66.133h-209.067c-34.133 2.133-64 29.867-64 66.133v341.333c0 36.267 29.867 66.133 66.133 66.133h6.4c12.8 0 21.333 10.667 21.333 21.333v61.867h151.467v-61.867c0-12.8 10.667-21.333 21.333-21.333h6.4c36.267 0 66.133-29.867 66.133-66.133v-341.333zM629.333 123.733c-25.6-8.533-51.2 4.267-59.733 29.867l-29.867 89.6 89.6 29.867 29.867-89.6c8.533-25.6-6.4-51.2-29.867-59.733zM731.733 157.867l-49.067 10.667c0 6.4-2.133 14.933-4.267 21.333l-27.733 81.067c4.267 0 6.4 0 10.667 0l91.733-19.2-21.333-93.867z" />
<glyph unicode="&#xe928;" glyph-name="icon_gzss" d="M522.667 842.667c-40.533 0-78.933-6.4-115.2-17.067 19.2-8.533 38.4-23.467 59.733-46.933 147.2-164.267 219.733-266.667 147.2-384-42.667-68.267-189.867-85.333-202.667 0-12.8 83.2 72.533 72.533 36.267 147.2-36.267 72.533-147.2 164.267-147.2 164.267-4.267 25.6-2.133 51.2 4.267 74.667-106.667-72.533-177.067-194.133-177.067-332.8 0-164.267 102.4-307.2 245.333-364.8 12.8 42.667 6.4 89.6-17.067 125.867-36.267 55.467 19.2 91.733 19.2 91.733 40.533 40.533 106.667-40.533 183.467 0 51.2 25.6 91.733 23.467 128-55.467s-85.333-98.133-110.933-128c-14.933-19.2-25.6-40.533-32-64 206.933 10.667 371.2 183.467 371.2 392.533 0 219.733-174.933 396.8-392.533 396.8zM723.2 264.533c-29.867 0-55.467 61.867-55.467 136.533 0 76.8 25.6 136.533 55.467 136.533s55.467-61.867 55.467-136.533c0-74.667-23.467-136.533-55.467-136.533z" />
<glyph unicode="&#xe929;" glyph-name="icon_heart-a" d="M695.467 829.867c-68.267 0-134.4-27.733-183.467-74.667-49.067 46.933-115.2 74.667-183.467 74.667-145.067 0-262.4-117.333-262.4-264.533 0-25.6 4.267-51.2 12.8-76.8v0c2.133-10.667 6.4-21.333 12.8-32 0 0 0-2.133 2.133-2.133v0c14.933-25.6 36.267-51.2 57.6-72.533-10.667-19.2-8.533-42.667 8.533-57.6l51.2-49.067c8.533-8.533 21.333-12.8 34.133-12.8s25.6 4.267 34.133 14.933l34.133 34.133c19.2 19.2 17.067 49.067-2.133 66.133l-53.333 49.067c-8.533 8.533-21.333 12.8-34.133 12.8s-25.6-4.267-34.133-14.933l-14.933-14.933c-21.333 19.2-38.4 40.533-49.067 59.733v0c-4.267 6.4-6.4 14.933-8.533 23.467-8.533 23.467-12.8 49.067-12.8 74.667 0 123.733 100.267 226.133 224 226.133 64 0 125.867-27.733 168.533-76.8l14.933-17.067 14.933 17.067c42.667 49.067 104.533 76.8 168.533 76.8 123.733 0 224-100.267 224-226.133 0-57.6-44.8-142.933-98.133-192l-147.2-142.933c-19.2 57.6-72.533 100.267-138.667 100.267-81.067 0-145.067-66.133-145.067-145.067 0-81.067 66.133-145.067 145.067-145.067s142.933 64 145.067 140.8l166.4 162.133c53.333 49.067 110.933 142.933 110.933 221.867 0 145.067-119.467 262.4-262.4 262.4zM224 401.067c2.133 0 4.267 0 6.4-2.133l51.2-49.067c2.133-2.133 2.133-4.267 2.133-6.4s0-4.267-2.133-6.4l-34.133-34.133c-2.133-2.133-4.267-2.133-6.4-2.133s-4.267 0-6.4 2.133l-51.2 49.067c-2.133 2.133-2.133 4.267-2.133 6.4s0 4.267 2.133 6.4l34.133 34.133c2.133 2.133 6.4 2.133 6.4 2.133zM533.333 81.067c-59.733 0-106.667 46.933-106.667 106.667s46.933 106.667 106.667 106.667c59.733 0 106.667-46.933 106.667-106.667s-46.933-106.667-106.667-106.667zM420.267 539.733c27.733 19.2 61.867 27.733 93.867 23.467 57.6-8.533 100.267-55.467 106.667-113.067 0-10.667 10.667-19.2 21.333-17.067 10.667 0 19.2 10.667 17.067 21.333-6.4 74.667-64 136.533-138.667 147.2-42.667 6.4-87.467-4.267-123.733-29.867s-59.733-64-66.133-108.8c-2.133-17.067-2.133-34.133 0-49.067 2.133-10.667 10.667-17.067 19.2-17.067 0 0 2.133 0 2.133 0 10.667 2.133 17.067 10.667 17.067 21.333-2.133 12.8-2.133 25.6 0 38.4 6.4 34.133 23.467 61.867 51.2 83.2zM445.867 475.733c-19.2-12.8-29.867-34.133-34.133-55.467-2.133-8.533-2.133-17.067 0-25.6 2.133-10.667 10.667-17.067 19.2-17.067 0 0 2.133 0 2.133 0 10.667 2.133 17.067 10.667 17.067 21.333 0 4.267 0 8.533 0 14.933 2.133 12.8 8.533 23.467 19.2 32 10.667 6.4 21.333 10.667 34.133 8.533 21.333-4.267 36.267-21.333 38.4-42.667 0-10.667 10.667-19.2 21.333-17.067 10.667 0 19.2 10.667 17.067 21.333-4.267 38.4-32 70.4-70.4 76.8-23.467 2.133-44.8-2.133-64-17.067z" />
<glyph unicode="&#xe92a;" glyph-name="icon_heart-b" d="M501.333 23.467c-12.8 0-27.733 2.133-42.667 12.8-2.133 2.133-4.267 2.133-6.4 4.267l-343.467 375.467c-2.133 2.133-2.133 4.267-4.267 6.4-2.133 4.267-70.4 128-23.467 243.2 27.733 68.267 89.6 115.2 185.6 142.933 12.8 2.133 113.067 21.333 147.2-42.667 8.533-14.933 2.133-32-10.667-38.4-14.933-8.533-32-2.133-38.4 10.667-12.8 21.333-61.867 19.2-83.2 14.933-74.667-21.333-123.733-57.6-145.067-108.8-34.133-78.933 10.667-174.933 19.2-192l339.2-366.933c8.533-4.267 19.2 0 23.467 2.133l366.933 366.933c72.533 162.133-72.533 270.933-78.933 277.333-147.2 115.2-245.333 8.533-249.6 4.267l-234.667-234.667c-10.667-10.667-29.867-10.667-40.533 0s-10.667 29.867 0 40.533l230.4 230.4c0 0 136.533 151.467 326.4 2.133 66.133-49.067 172.8-185.6 93.867-352-2.133-2.133-4.267-6.4-6.4-8.533l-373.333-373.333c-2.133-2.133-4.267-4.267-6.4-4.267-10.667-6.4-25.6-12.8-44.8-12.8z" />
<glyph unicode="&#xe92b;" glyph-name="icon_home-a" d="M561.067 819.2c-6.4 8.533-12.8 17.067-19.2 23.467v0 0c-6.4 6.4-14.933 10.667-21.333 10.667-46.933 2.133-85.333-64-108.8-89.6-108.8-119.467-320-379.733-320-379.733l25.6-42.667c0 0 266.667 322.133 377.6 443.733 6.4 6.4 14.933 10.667 23.467 12.8l375.467-456.533 25.6 42.667-358.4 435.2zM791.467 132.267c0-8.533-4.267-17.067-12.8-23.467h-134.4c2.133 59.733 2.133 166.4-2.133 232.533-4.267 64-53.333 64-70.4 64-25.6 0 6.4 0 6.4 0h-64c-10.667 0-19.2 0-25.6 0h-36.267c-89.6 0-85.333-64-85.333-64v-21.333c0 0 0-113.067 0-187.733v-23.467h-125.867c0 0-21.333 6.4-21.333 21.333 0 98.133 0 275.2 0 275.2h-42.667v-253.867c0 0-4.267-40.533 21.333-64s42.667-21.333 42.667-21.333h168.533c0 0 0 23.467 0 57.6v196.267c0 21.333 4.267 40.533 53.333 42.667h93.867c0 0 42.667-6.4 42.667-42.667 0-98.133 0-253.867 0-253.867h21.333l160-2.133 6.4 8.533c23.467 6.4 44.8 19.2 44.8 55.467 0 12.8 0 64 0 64v213.333h-42.667c2.133 0 2.133-179.2 2.133-273.067z" />
<glyph unicode="&#xe92c;" glyph-name="icon_home-b" d="M940.8 588.8l-426.667 256-4.267-8.533-426.667-245.333 25.6-42.667 76.8 44.8v-460.8c0-40.533 34.133-74.667 74.667-74.667h501.333c40.533 0 74.667 34.133 74.667 74.667v458.667l76.8-46.933 27.733 44.8zM625.067 106.667h-226.133v183.467c0 21.333 17.067 38.4 38.4 38.4h151.467c21.333 0 38.4-17.067 38.4-38.4v-183.467zM787.2 132.267c0-12.8-10.667-25.6-25.6-25.6h-113.067v183.467c0 34.133-27.733 61.867-61.867 61.867h-151.467c-34.133 0-61.867-27.733-61.867-61.867v-183.467h-113.067c-12.8 0-25.6 10.667-25.6 25.6v488.533l281.6 162.133 270.933-162.133v-488.533z" />
<glyph unicode="&#xe92d;" glyph-name="icon_jfss" d="M827.733 819.2c-55.467 0-108.8 0-164.267 0-6.4 0-12.8-4.267-14.933-10.667s-2.133-12.8 2.133-17.067c34.133-36.267 55.467-85.333 55.467-140.8 0-104.533-74.667-189.867-172.8-202.667-4.267 0-8.533-4.267-8.533-10.667 0-119.467 0-238.933 0-358.4 0-6.4 4.267-10.667 8.533-10.667 93.867 0 187.733 0 281.6 0 17.067 0 29.867 12.8 32 32 10.667 219.733 19.2 441.6 29.867 661.333 2.133 32-19.2 57.6-49.067 57.6zM490.667 448c-98.133 10.667-172.8 98.133-172.8 202.667 0 55.467 21.333 104.533 55.467 140.8 4.267 4.267 6.4 10.667 2.133 17.067-2.133 6.4-8.533 10.667-14.933 10.667-55.467 0-108.8 0-164.267 0-29.867 0-53.333-25.6-51.2-55.467 10.667-219.733 19.2-441.6 29.867-661.333 0-17.067 14.933-32 32-32 93.867 0 187.733 0 281.6 0 4.267 0 8.533 4.267 8.533 10.667 0 119.467 0 238.933 0 358.4 2.133 4.267-2.133 8.533-6.4 8.533zM512 678.4c-2.133 0-4.267 0-6.4 0l-32 78.933-4.267-2.133 29.867-78.933c-8.533-4.267-14.933-14.933-14.933-25.6 0-17.067 12.8-29.867 27.733-29.867s27.733 12.8 27.733 29.867c0 14.933-12.8 27.733-27.733 27.733zM682.667 648.533c0 46.933-17.067 91.733-49.067 123.733-32 34.133-74.667 51.2-119.467 51.2s-87.467-19.2-119.467-51.2c-32-34.133-49.067-76.8-49.067-123.733s17.067-91.733 49.067-123.733c32-34.133 74.667-51.2 119.467-51.2s87.467 19.2 119.467 51.2c29.867 34.133 49.067 76.8 49.067 123.733zM512 503.467c-36.267 0-72.533 14.933-98.133 42.667s-40.533 64-40.533 104.533c0 38.4 14.933 76.8 40.533 104.533s61.867 42.667 98.133 42.667c36.267 0 72.533-14.933 98.133-42.667s40.533-64 40.533-104.533c0-38.4-14.933-76.8-40.533-104.533s-61.867-42.667-98.133-42.667z" />
<glyph unicode="&#xe92e;" glyph-name="icon_jkjc" d="M512 51.2c-219.733 0-398.933 179.2-398.933 398.933s179.2 398.933 398.933 398.933 398.933-179.2 398.933-398.933-179.2-398.933-398.933-398.933zM187.733 358.4c0-123.733 100.267-221.867 221.867-221.867s221.867 98.133 221.867 221.867c0 123.733-100.267 221.867-221.867 221.867s-221.867-100.267-221.867-221.867zM539.733 765.867c-46.933 0-83.2-36.267-83.2-83.2s36.267-83.2 83.2-83.2c46.933 0 83.2 36.267 83.2 83.2s-36.267 83.2-83.2 83.2zM742.4 672c-76.8 0-138.667-61.867-138.667-138.667s61.867-138.667 138.667-138.667c76.8 0 138.667 61.867 138.667 138.667 2.133 76.8-61.867 138.667-138.667 138.667zM678.4 430.933c-10.667 0-19.2 8.533-19.2 19.2s8.533 19.2 19.2 19.2c10.667 0 19.2-8.533 19.2-19.2s-8.533-19.2-19.2-19.2zM659.2 505.6c-10.667 0-19.2 8.533-19.2 19.2s8.533 19.2 19.2 19.2 19.2-8.533 19.2-19.2c0-10.667-8.533-19.2-19.2-19.2zM603.733 379.733c0-25.6-21.333-46.933-46.933-46.933s-46.933 21.333-46.933 46.933c0 25.6 21.333 46.933 46.933 46.933s46.933-21.333 46.933-46.933zM492.8 450.133c-10.667 0-19.2 8.533-19.2 19.2s8.533 19.2 19.2 19.2c10.667 0 19.2-8.533 19.2-19.2s-8.533-19.2-19.2-19.2zM465.067 505.6c-14.933 0-27.733 12.8-27.733 27.733s12.8 27.733 27.733 27.733c14.933 0 27.733-12.8 27.733-27.733s-12.8-27.733-27.733-27.733zM392.533 407.467c-25.6 0-46.933 21.333-46.933 46.933s21.333 46.933 46.933 46.933 46.933-21.333 46.933-46.933-21.333-46.933-46.933-46.933zM437.333 375.467c10.667 0 19.2-8.533 19.2-19.2s-8.533-19.2-19.2-19.2c-10.667 0-19.2 8.533-19.2 19.2s8.533 19.2 19.2 19.2z" />
<glyph unicode="&#xe92f;" glyph-name="icon_key" d="M608 456.533c6.4 21.333 10.667 44.8 10.667 66.133 0 132.267-106.667 238.933-238.933 238.933s-238.933-106.667-238.933-238.933 106.667-238.933 238.933-238.933c38.4 0 74.667 8.533 106.667 25.6v-25.6h81.067v-53.333l81.067 25.6v-106.667h106.667v-81.067h132.267v160l-279.467 228.267zM339.2 471.467c-51.2 0-93.867 42.667-93.867 93.867s42.667 93.867 93.867 93.867 93.867-42.667 93.867-93.867-42.667-93.867-93.867-93.867z" />
<glyph unicode="&#xe930;" glyph-name="icon_kjl" d="M808.533 669.867l-68.267 68.267c-40.533 40.533-106.667 40.533-145.067 0l-379.733-377.6c-40.533-40.533-40.533-106.667 0-145.067l68.267-68.267c40.533-40.533 106.667-40.533 145.067 0l379.733 379.733c40.533 38.4 40.533 102.4 0 142.933zM785.067 548.267l-192-192-140.8 140.8-187.733-187.733c-6.4-6.4-10.667-14.933-10.667-23.467s4.267-17.067 10.667-23.467c6.4-6.4 6.4-17.067 0-23.467-4.267-4.267-8.533-4.267-12.8-4.267s-8.533 2.133-12.8 4.267c-12.8 12.8-19.2 29.867-19.2 49.067s6.4 36.267 19.2 49.067l379.733 377.6c12.8 12.8 29.867 19.2 49.067 19.2s36.267-6.4 49.067-19.2l68.267-68.267c25.6-27.733 25.6-70.4 0-98.133z" />
<glyph unicode="&#xe931;" glyph-name="icon_location" d="M512 689.067c-89.6 0-162.133-72.533-162.133-162.133s72.533-162.133 162.133-162.133c89.6 0 162.133 72.533 162.133 162.133s-72.533 162.133-162.133 162.133zM512 407.467c-66.133 0-121.6 53.333-121.6 121.6 0 66.133 53.333 121.6 121.6 121.6 66.133 0 121.6-53.333 121.6-121.6s-55.467-121.6-121.6-121.6zM512 829.867c-166.4 0-302.933-132.267-302.933-296.533 0-162.133 302.933-490.667 302.933-490.667s302.933 328.533 302.933 492.8c0 162.133-136.533 294.4-302.933 294.4zM249.6 535.467c0 140.8 117.333 256 262.4 256s262.4-115.2 262.4-256c0-108.8-168.533-324.267-262.4-433.067-93.867 108.8-262.4 324.267-262.4 433.067z" />
<glyph unicode="&#xe932;" glyph-name="icon_lock-a" d="M723.2 494.933v170.667h-2.133c-14.933 96-96 166.4-194.133 166.4s-179.2-72.533-194.133-166.4h-2.133v-170.667c-38.4-10.667-66.133-44.8-66.133-87.467v-206.933c0-49.067 104.533-157.867 209.067-157.867h119.467c96 0 192 108.8 192 157.867v206.933c2.133 42.667-25.6 76.8-61.867 87.467zM373.333 635.733v8.533c4.267 81.067 70.4 145.067 153.6 145.067 81.067 0 149.333-64 153.6-145.067v-145.067h-23.467v145.067c-8.533 61.867-61.867 110.933-128 110.933s-119.467-46.933-128-110.933h-2.133v-145.067h-25.6v136.533zM420.267 499.2v134.4c2.133 55.467 49.067 100.267 106.667 100.267s104.533-44.8 106.667-100.267v-132.267h-213.333zM744.533 204.8c0-23.467-76.8-115.2-149.333-115.2h-119.467c-83.2 0-166.4 91.733-166.4 115.2v206.933c0 25.6 21.333 46.933 46.933 46.933h343.467c25.6 0 46.933-21.333 46.933-46.933v-206.933zM526.933 347.733c-27.733 0-49.067-29.867-49.067-66.133s49.067-83.2 49.067-83.2 49.067 46.933 49.067 83.2c2.133 36.267-21.333 66.133-49.067 66.133z" />
<glyph unicode="&#xe933;" glyph-name="icon_lock-b" d="M729.6 492.8v160c0 117.333-98.133 213.333-217.6 213.333s-217.6-96-217.6-213.333v-160c-59.733 0-108.8-46.933-108.8-106.667v-266.667c0-59.733 49.067-106.667 108.8-106.667h435.2c59.733 0 108.8 46.933 108.8 106.667v266.667c0 57.6-49.067 106.667-108.8 106.667zM539.733 234.667v-87.467c0-14.933-12.8-27.733-27.733-27.733s-27.733 12.8-27.733 27.733v87.467c-17.067 8.533-27.733 25.6-27.733 44.8 0 29.867 23.467 53.333 55.467 53.333 29.867 0 55.467-23.467 55.467-53.333 0-19.2-12.8-36.267-27.733-44.8zM620.8 492.8h-217.6v160c0 59.733 49.067 106.667 108.8 106.667s108.8-46.933 108.8-106.667v-160z" />
<glyph unicode="&#xe934;" glyph-name="icon_lock" d="M829.867 516.267h-104.533v140.8c0 64-19.2 119.467-59.733 162.133s-91.733 64-153.6 64c-61.867 0-113.067-21.333-153.6-64s-61.867-96-61.867-162.133v-34.133c0-17.067 12.8-29.867 29.867-29.867s29.867 12.8 29.867 29.867v34.133c0 49.067 14.933 87.467 42.667 119.467 29.867 32 68.267 46.933 113.067 46.933s83.2-14.933 110.933-46.933c27.733-29.867 42.667-70.4 42.667-119.467v-140.8h-471.467c-17.067 0-29.867-12.8-29.867-29.867v-428.8c0-17.067 12.8-29.867 29.867-29.867h637.867c14.933 0 29.867 12.8 29.867 29.867v428.8c-2.133 17.067-17.067 29.867-32 29.867zM802.133 87.467h-580.267v369.067h578.133v-369.067zM482.133 270.933v-123.733c0-17.067 12.8-29.867 29.867-29.867s29.867 14.933 29.867 29.867v123.733c25.6 10.667 42.667 34.133 42.667 59.733 0 17.067-8.533 34.133-21.333 46.933-14.933 12.8-29.867 19.2-49.067 19.2s-36.267-6.4-51.2-19.2c-14.933-12.8-21.333-27.733-21.333-46.933-2.133-23.467 17.067-49.067 40.533-59.733z" />
<glyph unicode="&#xe935;" glyph-name="icon_male" d="M868.267 791.467v0h-234.667c0 0-2.133 0-2.133-2.133v-40.533c0 0 0-2.133 2.133-2.133h145.067l-138.667-136.533c0 0 0 0 0 0-51.2 40.533-115.2 64-183.467 64-164.267 0-296.533-132.267-296.533-296.533s132.267-296.533 296.533-296.533c164.267 0 296.533 132.267 296.533 296.533 0 74.667-27.733 142.933-74.667 196.267l149.333 147.2v-162.133c0 0 0-2.133 2.133-2.133h40.533c0 0 2.133 0 2.133 2.133v192l-4.267 40.533c0 0 0 0 0 0zM452.267 130.133c-136.533 0-247.467 110.933-247.467 247.467s110.933 247.467 247.467 247.467c136.533 0 247.467-110.933 247.467-247.467 2.133-136.533-110.933-247.467-247.467-247.467z" />
<glyph unicode="&#xe936;" glyph-name="icon_minus" d="M142.933 505.6h718.933c10.667 0 19.2-8.533 19.2-19.2v-38.4c0-10.667-8.533-19.2-19.2-19.2h-718.933c-10.667 0-19.2 8.533-19.2 19.2v38.4c0 10.667 8.533 19.2 19.2 19.2z" />
<glyph unicode="&#xe937;" glyph-name="icon_more-a" d="M800 390.4c-32 0-57.6 25.6-57.6 57.6s25.6 57.6 57.6 57.6c32 0 57.6-25.6 57.6-57.6s-25.6-57.6-57.6-57.6zM512 390.4c-32 0-57.6 25.6-57.6 57.6s25.6 57.6 57.6 57.6c32 0 57.6-25.6 57.6-57.6s-25.6-57.6-57.6-57.6zM224 390.4c-32 0-57.6 25.6-57.6 57.6s25.6 57.6 57.6 57.6c32 0 57.6-25.6 57.6-57.6s-25.6-57.6-57.6-57.6z" />
<glyph unicode="&#xe938;" glyph-name="icon_more-b" d="M806.4 243.2h-588.8c-8.533 0-14.933-6.4-14.933-14.933v-61.867c0-8.533 6.4-14.933 14.933-14.933h586.667c8.533 0 14.933 6.4 14.933 14.933v61.867c2.133 8.533-4.267 14.933-12.8 14.933zM806.4 475.733h-588.8c-8.533 0-14.933-6.4-14.933-14.933v-61.867c0-8.533 6.4-14.933 14.933-14.933h586.667c8.533 0 14.933 6.4 14.933 14.933v61.867c2.133 8.533-4.267 14.933-12.8 14.933zM806.4 708.267h-588.8c-8.533 0-14.933-6.4-14.933-14.933v-61.867c0-8.533 6.4-14.933 14.933-14.933h586.667c8.533 0 14.933 6.4 14.933 14.933v61.867c2.133 6.4-4.267 14.933-12.8 14.933z" />
<glyph unicode="&#xe939;" glyph-name="icon_mrmy" d="M537.6 834.133c-2.133 0-2.133 0-4.267 0 2.133 0 2.133 0 4.267 0-4.267 0-8.533 0-10.667 0 2.133 0 6.4 0 8.533 0-4.267 0-10.667 0-14.933 0-2.133 0-4.267 0-6.4 0 0 0 0 0 0 0s0 0 0 0 0 0 0 0c0-2.133 19.2-177.067 155.733-292.267 138.667-115.2 138.667-219.733 64-270.933-72.533-51.2-102.4 21.333-102.4 21.333s17.067-72.533 106.667-85.333c32-4.267 61.867 4.267 89.6 25.6 42.667 61.867 66.133 136.533 66.133 217.6 0 200.533-157.867 366.933-356.267 384zM115.2 448c0-213.333 172.8-388.267 388.267-388.267 55.467 0 110.933 12.8 157.867 34.133 0 2.133-2.133 2.133-2.133 4.267-14.933 25.6-29.867 55.467-51.2 76.8-14.933 17.067-72.533 51.2-110.933 49.067-25.6 0-85.333 2.133-119.467 8.533s-42.667 42.667-34.133 57.6c6.4 14.933 23.467 25.6 21.333 40.533 0 4.267 0 17.067-2.133 19.2-4.267 2.133-14.933 6.4-19.2 12.8-4.267 8.533 4.267 19.2 10.667 23.467 10.667 4.267 32 0 29.867 0-6.4 2.133-29.867 4.267-36.267 19.2-8.533 17.067 4.267 19.2 10.667 25.6 8.533 10.667 2.133 19.2-2.133 27.733-6.4 8.533-23.467 17.067-25.6 32-4.267 21.333 2.133 12.8 49.067 44.8 10.667 6.4 17.067 12.8 23.467 17.067 0 4.267-2.133 6.4 0 10.667 0 2.133 0 2.133 0 4.267-4.267 0-8.533 0-12.8 0-19.2 2.133-36.267 10.667-46.933 21.333 10.667-6.4 23.467-10.667 36.267-10.667 0 0 2.133 0 2.133 0-8.533 4.267-14.933 8.533-21.333 14.933 10.667-4.267 21.333-8.533 34.133-10.667-8.533 4.267-14.933 8.533-19.2 12.8 10.667-6.4 23.467-10.667 36.267-10.667 2.133 2.133 4.267 4.267 8.533 4.267 0 2.133 0 6.4 0 8.533 0 14.933 6.4 42.667 8.533 64s0 93.867 74.667 164.267c2.133 2.133 4.267 4.267 8.533 6.4-2.133 0-4.267 0-6.4 0-217.6 4.267-390.4-170.667-390.4-384zM507.733 836.267c2.133 0 2.133 0 4.267 0-2.133-2.133-2.133 0-4.267 0 0 0 0 0 0 0z" />
<glyph unicode="&#xe93a;" glyph-name="icon_notebook-a" d="M746.667 787.2h-25.6v25.6c0 12.8-10.667 25.6-25.6 25.6h-369.067c-12.8 0-25.6-10.667-25.6-25.6v-25.6h-23.467c-55.467 0-98.133-44.8-98.133-98.133v-541.867c0-55.467 44.8-98.133 98.133-98.133h469.333c55.467 0 98.133 44.8 98.133 98.133v541.867c0 53.333-44.8 98.133-98.133 98.133zM795.733 147.2c0-27.733-21.333-49.067-49.067-49.067h-469.333c-27.733 0-49.067 21.333-49.067 49.067v541.867c0 27.733 21.333 49.067 49.067 49.067h25.6v-25.6c0-12.8 10.667-25.6 25.6-25.6h369.067c12.8 0 25.6 10.667 25.6 25.6v25.6h23.467c27.733 0 49.067-21.333 49.067-49.067v-541.867zM548.267 516.267h-49.067v-98.133h-98.133v-49.067h98.133v-98.133h49.067v98.133h98.133v49.067h-98.133v98.133z" />
<glyph unicode="&#xe93b;" glyph-name="icon_notebook-b" d="M665.6 625.067h-14.933c-6.4-14.933-19.2-23.467-36.267-23.467s-29.867 10.667-36.267 23.467h-21.333c-6.4-14.933-19.2-23.467-36.267-23.467s-29.867 10.667-36.267 23.467h-21.333c-6.4-14.933-19.2-23.467-36.267-23.467s-29.867 10.667-36.267 23.467h-29.867c-21.333 0-38.4-17.067-38.4-36.267v-330.667c0-19.2 17.067-36.267 38.4-36.267h305.067c21.333 0 38.4 17.067 38.4 36.267v330.667c-2.133 19.2-19.2 36.267-38.4 36.267zM629.333 330.667h-234.667c-4.267 0-8.533 4.267-8.533 8.533s4.267 8.533 8.533 8.533h232.533c4.267 0 8.533-4.267 8.533-8.533 2.133-4.267-2.133-8.533-6.4-8.533zM629.333 405.333h-234.667c-4.267 0-8.533 4.267-8.533 8.533s4.267 8.533 8.533 8.533h232.533c4.267 0 8.533-4.267 8.533-8.533 2.133-6.4-2.133-8.533-6.4-8.533zM629.333 477.867h-234.667c-4.267 0-8.533 4.267-8.533 8.533s4.267 8.533 8.533 8.533h232.533c4.267 0 8.533-4.267 8.533-8.533 2.133-6.4-2.133-8.533-6.4-8.533zM512 919.467c-264.533 0-480-215.467-480-480 0-266.667 215.467-482.133 480-482.133s480 215.467 480 482.133c0 264.533-215.467 480-480 480zM721.067 258.133c0-29.867-25.6-55.467-55.467-55.467h-307.2c-32 0-55.467 23.467-55.467 55.467v330.667c0 29.867 25.6 55.467 55.467 55.467h44.8l2.133-8.533c2.133-8.533 10.667-17.067 19.2-17.067 10.667 0 19.2 6.4 19.2 17.067l2.133 8.533h51.2l2.133-8.533c2.133-8.533 10.667-17.067 19.2-17.067s19.2 6.4 19.2 17.067l2.133 8.533h51.2l2.133-8.533c2.133-8.533 10.667-17.067 19.2-17.067 10.667 0 19.2 6.4 19.2 17.067l2.133 8.533h29.867c32 0 55.467-23.467 55.467-55.467v-330.667z" />
<glyph unicode="&#xe93c;" glyph-name="icon_notebook-c" d="M793.6 49.067h-563.2c-57.6 0-102.4 44.8-102.4 100.267v608c0 55.467 46.933 100.267 102.4 100.267h81.067l2.133-14.933c2.133-17.067 19.2-29.867 36.267-29.867 19.2 0 34.133 12.8 36.267 29.867l2.133 14.933h96l2.133-14.933c2.133-17.067 19.2-29.867 36.267-29.867s34.133 12.8 36.267 29.867l2.133 14.933h96l4.267-12.8c2.133-17.067 19.2-29.867 36.267-29.867 19.2 0 34.133 12.8 36.267 29.867l2.133 14.933h55.467c57.6 0 102.4-44.8 102.4-100.267v-608c2.133-55.467-44.8-102.4-100.267-102.4zM230.4 825.6c-38.4 0-68.267-32-68.267-68.267v-608c0-36.267 32-66.133 70.4-66.133h561.067c38.4 0 70.4 29.867 70.4 66.133v608c0 36.267-32 66.133-70.4 66.133h-29.867c-10.667-25.6-36.267-44.8-66.133-44.8s-55.467 17.067-66.133 44.8h-40.533c-10.667-25.6-36.267-44.8-66.133-44.8s-55.467 17.067-66.133 44.8h-40.533c-10.667-25.6-36.267-44.8-66.133-44.8s-55.467 17.067-66.133 44.8h-55.467zM727.467 554.667h-428.8c-8.533 0-17.067 6.4-17.067 17.067s6.4 17.067 17.067 17.067h428.8c8.533 0 17.067-6.4 17.067-17.067s-8.533-17.067-17.067-17.067zM727.467 420.267h-428.8c-8.533 0-17.067 6.4-17.067 17.067 0 8.533 6.4 17.067 17.067 17.067h428.8c8.533 0 17.067-6.4 17.067-17.067s-8.533-17.067-17.067-17.067zM727.467 285.867h-428.8c-8.533 0-17.067 6.4-17.067 17.067 0 8.533 6.4 17.067 17.067 17.067h428.8c8.533 0 17.067-6.4 17.067-17.067 0-8.533-8.533-17.067-17.067-17.067z" />
<glyph unicode="&#xe93d;" glyph-name="icon_package" d="M883.2 874.667h-699.733c-42.667 0-76.8-34.133-76.8-76.8v-729.6c0-42.667 34.133-76.8 76.8-76.8h697.6c42.667 0 76.8 34.133 76.8 76.8v729.6c2.133 42.667-32 76.8-74.667 76.8zM183.467 817.067h697.6c10.667 0 19.2-8.533 19.2-17.067v-49.067c-44.8-102.4-192-177.067-366.933-177.067s-322.133 74.667-366.933 177.067v46.933c0 10.667 8.533 19.2 17.067 19.2zM883.2 51.2h-699.733c-10.667 0-19.2 8.533-19.2 17.067v625.067c68.267-89.6 206.933-151.467 366.933-151.467s300.8 61.867 366.933 151.467v-625.067c2.133-8.533-6.4-17.067-14.933-17.067z" />
<glyph unicode="&#xe93e;" glyph-name="icon_people" d="M642.133 509.867c6.4 10.667 4.267 23.467-6.4 29.867s-23.467 4.267-29.867-6.4c-2.133-2.133-32-49.067-91.733-49.067-74.667 0-93.867 42.667-96 44.8-4.267 10.667-17.067 14.933-27.733 10.667s-14.933-17.067-10.667-27.733c2.133-2.133 32-70.4 134.4-70.4 83.2 0 125.867 64 128 68.267zM885.333 454.4c0 87.467-57.6 160-134.4 181.333-23.467 110.933-121.6 196.267-241.067 196.267-117.333 0-215.467-83.2-238.933-194.133-76.8-21.333-132.267-93.867-132.267-181.333 0-66.133 32-123.733 81.067-157.867-10.667-23.467-21.333-49.067-29.867-76.8-17.067-66.133-12.8-93.867-12.8-93.867h42.667c2.133 34.133 6.4 76.8 14.933 108.8 4.267 14.933 21.333 49.067 44.8 85.333-57.6 17.067-98.133 70.4-98.133 136.533 0 57.6 34.133 108.8 83.2 130.133 0 0 0 0 0-2.133 0-93.867 51.2-174.933 128-215.467-17.067-38.4-29.867-76.8-32-93.867-19.2-96-10.667-149.333-10.667-149.333h46.933c-2.133 27.733-2.133 81.067 8.533 145.067 10.667 46.933 32 100.267 44.8 128-78.933 25.6-134.4 100.267-134.4 185.6 0 108.8 87.467 196.267 196.267 196.267s196.267-87.467 196.267-196.267c0-87.467-57.6-162.133-136.533-187.733v0c0 0 44.8-98.133 53.333-142.933 6.4-44.8 6.4-98.133 6.4-128h40.533c0 0 10.667 81.067-10.667 149.333-12.8 44.8-32 87.467-34.133 93.867 76.8 40.533 130.133 121.6 130.133 215.467 51.2-21.333 85.333-70.4 85.333-130.133 0-64-42.667-119.467-98.133-134.4 23.467-36.267 40.533-70.4 44.8-85.333 8.533-32 12.8-74.667 14.933-108.8h42.667c0 0 6.4 27.733-12.8 96-8.533 27.733-17.067 53.333-29.867 76.8 49.067 32 81.067 89.6 81.067 153.6z" />
<glyph unicode="&#xe93f;" glyph-name="icon_phone" d="M693.333 866.133h-362.667c-34.133 0-64-27.733-64-61.867v-729.6c0-34.133 27.733-61.867 64-61.867h364.8c34.133 0 64 27.733 64 61.867v729.6c-2.133 34.133-29.867 61.867-66.133 61.867zM422.4 827.733h179.2c4.267 0 8.533-6.4 8.533-14.933s-4.267-14.933-8.533-14.933h-179.2c-4.267 0-8.533 6.4-8.533 14.933s4.267 14.933 8.533 14.933zM512 74.667c-21.333 0-40.533 17.067-40.533 40.533 0 21.333 17.067 40.533 40.533 40.533 21.333 0 40.533-17.067 40.533-40.533s-19.2-40.533-40.533-40.533zM710.4 209.067h-396.8v552.533h396.8v-552.533z" />
<glyph unicode="&#xe940;" glyph-name="icon_plus" d="M870.4 430.933h-320v-322.133c0-10.667-8.533-19.2-19.2-19.2h-38.4c-10.667 0-19.2 8.533-19.2 19.2v322.133h-320c-10.667 0-19.2 8.533-19.2 19.2v38.4c0 10.667 8.533 19.2 19.2 19.2h322.133v320c0 10.667 8.533 19.2 19.2 19.2h38.4c10.667 0 19.2-8.533 19.2-19.2v-322.133h322.133c10.667 0 19.2-8.533 19.2-19.2v-38.4c-4.267-8.533-12.8-17.067-23.467-17.067z" />
<glyph unicode="&#xe941;" glyph-name="icon_praise-a" d="M836.267 437.333h-241.067c-27.733 0-51.2-23.467-51.2-51.2v-6.4c0-27.733 23.467-51.2 51.2-51.2h241.067c27.733 0 51.2 23.467 51.2 51.2v6.4c0 27.733-21.333 51.2-51.2 51.2zM576 526.933v-6.4c0-27.733 23.467-51.2 51.2-51.2h179.2c27.733 0 51.2 23.467 51.2 51.2v6.4c0 27.733-23.467 51.2-51.2 51.2h-179.2c-27.733 0-51.2-23.467-51.2-51.2zM780.8 300.8h-204.8c-27.733 0-51.2-23.467-51.2-51.2v-6.4c0-27.733 23.467-51.2 51.2-51.2h204.8c27.733 0 51.2 23.467 51.2 51.2v6.4c2.133 27.733-21.333 51.2-51.2 51.2zM727.467 151.467h-140.8c-27.733 0-51.2-23.467-51.2-51.2v-6.4c0-27.733 23.467-51.2 51.2-51.2h140.8c27.733 0 38.4 23.467 38.4 51.2v6.4c0 29.867-8.533 51.2-38.4 51.2zM561.067 170.667c-34.133 6.4-57.6 36.267-57.6 72.533v6.4c0 32 19.2 59.733 49.067 70.4-19.2 12.8-29.867 36.267-29.867 59.733v6.4c0 38.4 27.733 68.267 64 72.533-19.2 12.8-32 36.267-32 59.733v6.4c0 40.533 34.133 74.667 74.667 74.667h10.667c12.8 14.933 6.4 10.667 14.933 23.467 32 40.533 115.2 147.2 74.667 198.4-40.533 49.067-72.533 51.2-136.533-12.8-25.6-25.6-23.467-25.6-70.4-76.8-40.533-44.8-115.2-153.6-275.2-196.267-4.267 0-6.4-2.133-10.667-2.133 0 0 0 0 0 0v0c-21.333-8.533-36.267-27.733-36.267-51.2v-279.467c0-27.733 21.333-44.8 49.067-66.133 34.133-29.867 132.267-104.533 283.733-91.733-12.8 12.8-19.2 29.867-19.2 49.067v6.4c-2.133 32 19.2 59.733 46.933 70.4z" />
<glyph unicode="&#xe942;" glyph-name="icon_praise-b" d="M680.533 520.533c-12.8 0-25.6-6.4-25.6-6.4l-4.267-2.133h-93.867v19.2c8.533 0 14.933 12.8 17.067 21.333 10.667 40.533 0 113.067-21.333 125.867-34.133 19.2-57.6 25.6-68.267 12.8-10.667-10.667-10.667-32-8.533-40.533v-4.267c-12.8-104.533-74.667-119.467-110.933-119.467-6.4 0-12.8 0-17.067 2.133v-219.733c87.467-44.8 192-51.2 245.333-51.2 21.333 0 34.133 2.133 34.133 2.133 19.2 0 34.133 6.4 42.667 17.067 21.333 23.467 21.333 64 21.333 64v0l19.2 110.933c2.133 29.867-4.267 53.333-14.933 64-2.133 0-8.533 4.267-14.933 4.267zM501.333 919.467c-264.533 0-480-215.467-480-480 0-266.667 215.467-482.133 480-482.133s480 215.467 480 482.133c0 264.533-215.467 480-480 480zM281.6 302.933h-19.2v241.067h19.2v-241.067zM731.733 448l-19.2-108.8c0-6.4 0-49.067-25.6-76.8-14.933-14.933-32-21.333-55.467-21.333 0 0-12.8-2.133-36.267-2.133-57.6 0-168.533 6.4-260.267 57.6l-4.267 2.133v251.733l10.667-4.267c0 0 10.667-2.133 23.467-2.133 36.267 0 81.067 17.067 91.733 102.4 0 6.4-2.133 36.267 12.8 53.333 17.067 19.2 49.067 17.067 91.733-8.533 29.867-17.067 42.667-100.267 29.867-145.067-2.133-6.4-4.267-12.8-6.4-17.067h61.867c4.267 2.133 19.2 8.533 32 8.533s23.467-4.267 32-12.8c14.933-14.933 21.333-40.533 21.333-76.8z" />
<glyph unicode="&#xe943;" glyph-name="icon_praise-c" d="M697.6 40.533c-100.267 0-290.133 12.8-450.133 98.133l-8.533 4.267v441.6l19.2-6.4c0 0 17.067-4.267 40.533-4.267 61.867 0 140.8 32 160 179.2 0 10.667-4.267 61.867 23.467 91.733 29.867 34.133 83.2 29.867 157.867-14.933 51.2-32 72.533-172.8 51.2-253.867-4.267-10.667-6.4-21.333-10.667-27.733h106.667c8.533 4.267 32 14.933 57.6 14.933 21.333 0 40.533-8.533 55.467-23.467 23.467-25.6 36.267-70.4 32-134.4l-32-189.867c0-12.8 0-87.467-44.8-134.4-23.467-25.6-55.467-38.4-96-38.4 0 0-23.467-2.133-61.867-2.133zM270.933 162.133c151.467-78.933 332.8-89.6 426.667-89.6 36.267 0 59.733 2.133 59.733 2.133 32 0 57.6 10.667 76.8 27.733 38.4 40.533 36.267 110.933 36.267 113.067v2.133l32 192c2.133 53.333-6.4 91.733-23.467 108.8-8.533 8.533-19.2 12.8-34.133 12.8-23.467 0-44.8-12.8-44.8-12.8l-4.267-2.133h-162.133v32c17.067 0 25.6 23.467 29.867 36.267 19.2 72.533-2.133 196.267-38.4 217.6-57.6 34.133-98.133 42.667-119.467 21.333-17.067-19.2-17.067-55.467-14.933-68.267v-4.267c-23.467-181.333-130.133-209.067-192-209.067-10.667 0-21.333 0-27.733 2.133v-381.867zM121.6 573.867h32v-418.133h-32v418.133z" />
<glyph unicode="&#xe944;" glyph-name="icon_qlxjk" d="M827.733 78.933c0 0 0-10.667-21.333-23.467 0 0-136.533-59.733-324.267-55.467 0 0-183.467 8.533-298.667 64 0 0-17.067 4.267-17.067 42.667 0 0 6.4 172.8 57.6 251.733 0 0 14.933 21.333 49.067 34.133 0 0 117.333 36.267 125.867 68.267 0 0 85.333-232.533 200.533 0 0 0 0-21.333 57.6-42.667 0 0 108.8-36.267 125.867-76.8-2.133 2.133 57.6-138.667 44.8-262.4zM642.133 610.133c-2.133-14.933-8.533-21.333-12.8-23.467-8.533-70.4-70.4-153.6-136.533-153.6-55.467 0-117.333 76.8-128 153.6-4.267 2.133-10.667 8.533-12.8 23.467 0 0-14.933 55.467 6.4 44.8-14.933 85.333-4.267 113.067-4.267 113.067 25.6 64 93.867 93.867 93.867 93.867 14.933 17.067 14.933 10.667 14.933 6.4 2.133 6.4 6.4 8.533 6.4 8.533-4.267-4.267-6.4-8.533-8.533-12.8l8.533-4.267c4.267 8.533 8.533 12.8 8.533 12.8-4.267-4.267-6.4-8.533-8.533-12.8l4.267-2.133c4.267 14.933 14.933 23.467 21.333 25.6 6.4 8.533 12.8 12.8 12.8 12.8-6.4-6.4-10.667-12.8-12.8-21.333 6.4 8.533 17.067 14.933 17.067 14.933 0-17.067 17.067-32 25.6-38.4-2.133 4.267-4.267 6.4-4.267 6.4 4.267-4.267 6.4-6.4 8.533-10.667 2.133 0 2.133 0 4.267 0-4.267 4.267-6.4 6.4-6.4 6.4 4.267-2.133 6.4-6.4 8.533-8.533 2.133 0 6.4-2.133 8.533-2.133-2.133 2.133-2.133 4.267-2.133 4.267 2.133-2.133 4.267-2.133 4.267-4.267 46.933-14.933 66.133-42.667 66.133-42.667 40.533-46.933 19.2-125.867 12.8-145.067 19.2 6.4 4.267-44.8 4.267-44.8zM482.133 864h2.133c2.133 6.4 4.267 12.8 8.533 17.067-6.4-6.4-8.533-10.667-10.667-17.067z" />
<glyph unicode="&#xe945;" glyph-name="icon_record-a" d="M512 633.6c-108.8 0-196.267-87.467-196.267-196.267s87.467-196.267 196.267-196.267c108.8 0 196.267 87.467 196.267 196.267s-87.467 196.267-196.267 196.267zM526.933 394.667v0c-8.533-8.533-19.2-14.933-34.133-14.933-23.467 0-40.533 19.2-40.533 42.667 0 21.333 14.933 38.4 34.133 42.667l91.733 40.533-51.2-110.933zM512 917.333c-264.533 0-480-215.467-480-480 0-266.667 215.467-482.133 480-482.133s480 215.467 480 482.133c0 264.533-215.467 480-480 480zM512 221.867c-119.467 0-215.467 96-215.467 215.467 0 117.333 96 215.467 215.467 215.467s215.467-96 215.467-215.467c0-119.467-96-215.467-215.467-215.467z" />
<glyph unicode="&#xe946;" glyph-name="icon_record-b" d="M512 795.733c-230.4 0-416-185.6-416-416 0-119.467 51.2-228.267 132.267-302.933 10.667 0 19.2 2.133 23.467 4.267 6.4 4.267 8.533 17.067 6.4 29.867-72.533 68.267-119.467 164.267-119.467 273.067 0 204.8 166.4 371.2 371.2 371.2s371.2-166.4 371.2-371.2c0-106.667-44.8-200.533-117.333-268.8 0-10.667 2.133-19.2 12.8-25.6 8.533-4.267 17.067-6.4 25.6-6.4 76.8 74.667 125.867 181.333 125.867 296.533 0 230.4-185.6 416-416 416zM550.4 366.933l-134.4 217.6 19.2-260.267c-10.667-17.067-19.2-38.4-19.2-59.733 0-59.733 46.933-106.667 106.667-106.667s106.667 46.933 106.667 106.667c0 49.067-34.133 89.6-78.933 102.4zM522.667 198.4c-36.267 0-64 27.733-64 64s27.733 64 64 64c36.267 0 64-27.733 64-64 0-34.133-27.733-64-64-64z" />
<glyph unicode="&#xe947;" glyph-name="icon_record-c" d="M644.267 578.133l-179.2-81.067c-38.4-6.4-68.267-40.533-68.267-83.2 0-46.933 36.267-83.2 81.067-83.2 25.6 0 49.067 12.8 64 32l2.133-2.133 100.267 217.6zM512 21.333c-234.667 0-426.667 189.867-426.667 424.533s192 424.533 426.667 424.533 426.667-189.867 426.667-424.533c0-234.667-192-424.533-426.667-424.533zM512 836.267c-215.467 0-390.4-174.933-390.4-390.4s174.933-388.267 390.4-388.267 390.4 174.933 390.4 388.267c0 215.467-174.933 390.4-390.4 390.4z" />
<glyph unicode="&#xe948;" glyph-name="icon_right-b" d="M328.533 757.333l38.4 38.4 332.8-330.667-332.8-332.8-38.4 38.4 292.267 292.267-292.267 294.4z" />
<glyph unicode="&#xe949;" glyph-name="icon_scancode" d="M874.667 744.533v-117.333h29.867v147.2c0 32-25.6 59.733-59.733 59.733h-147.2v-29.867h117.333c32 0 59.733-25.6 59.733-59.733zM149.333 140.8v117.333h-27.733v-147.2c0-32 25.6-59.733 59.733-59.733h147.2v29.867h-119.467c-32 0-59.733 25.6-59.733 59.733zM149.333 744.533c0 32 25.6 59.733 59.733 59.733h117.333v29.867h-147.2c-32 0-59.733-25.6-59.733-59.733v-147.2h29.867v117.333zM874.667 140.8c0-32-25.6-59.733-59.733-59.733h-117.333v-29.867h147.2c32 0 59.733 25.6 59.733 59.733v147.2h-29.867v-117.333zM512 450.133c-264.533 0-480-10.667-480-21.333 0-12.8 215.467-21.333 480-21.333s480 10.667 480 21.333c0 10.667-215.467 21.333-480 21.333z" />
<glyph unicode="&#xe94a;" glyph-name="icon_search-a" d="M900.267 121.6l-168.533 166.4c40.533 55.467 64 123.733 64 198.4 0 187.733-151.467 341.333-339.2 341.333s-339.2-153.6-339.2-341.333c0-187.733 151.467-341.333 339.2-341.333 87.467 0 168.533 34.133 228.267 89.6l170.667-168.533c0 0 32 0 42.667 14.933 14.933 14.933 2.133 40.533 2.133 40.533zM198.4 488.533c0 142.933 115.2 258.133 258.133 258.133s258.133-115.2 258.133-258.133c0-142.933-115.2-258.133-258.133-258.133-140.8-2.133-258.133 115.2-258.133 258.133z" />
<glyph unicode="&#xe94b;" glyph-name="icon_selected" d="M925.867 642.133c10.667 10.667 14.933 25.6 12.8 40.533s-8.533 27.733-21.333 36.267l-102.4 78.933c-25.6 19.2-59.733 14.933-81.067-8.533l-309.333-366.933-147.2 119.467c-27.733 23.467-70.4 21.333-96-4.267l-78.933-74.667c-10.667-10.667-17.067-25.6-17.067-40.533s8.533-29.867 19.2-38.4l296.533-243.2c10.667-8.533 25.6-14.933 42.667-12.8 14.933 2.133 29.867 8.533 38.4 19.2l443.733 494.933z" />
<glyph unicode="&#xe94c;" glyph-name="icon_setting" d="M541.867 814.933c12.8 0 21.333-10.667 21.333-21.333v-53.333c0-12.8 8.533-25.6 21.333-27.733l72.533-29.867c4.267-2.133 8.533-4.267 12.8-4.267 8.533 0 17.067 2.133 21.333 8.533l36.267 36.267c4.267 4.267 10.667 6.4 14.933 6.4 6.4 0 10.667-2.133 14.933-6.4l42.667-42.667c8.533-8.533 8.533-23.467 0-32l-32-36.267c-8.533-8.533-10.667-23.467-4.267-34.133l29.867-72.533c4.267-10.667 17.067-21.333 27.733-21.333h53.333c12.8 0 21.333-10.667 21.333-21.333v-59.733c0-12.8-10.667-21.333-21.333-21.333h-53.333c-12.8 0-25.6-8.533-27.733-21.333l-29.867-72.533c-6.4-10.667-4.267-25.6 4.267-34.133l36.267-36.267c8.533-8.533 8.533-23.467 0-32l-42.667-42.667c-4.267-4.267-10.667-6.4-14.933-6.4-6.4 0-10.667 2.133-14.933 6.4l-36.267 36.267c-4.267 4.267-12.8 8.533-21.333 8.533-4.267 0-8.533 0-12.8-4.267l-76.8-34.133c-10.667-4.267-21.333-17.067-21.333-27.733v-53.333c0-12.8-10.667-21.333-21.333-21.333h-59.733c-12.8 0-21.333 10.667-21.333 21.333v53.333c0 12.8-10.667 25.6-21.333 27.733l-72.533 29.867c-4.267 2.133-8.533 4.267-12.8 4.267-8.533 0-17.067-2.133-21.333-8.533l-36.267-36.267c-4.267-4.267-10.667-6.4-14.933-6.4-6.4 0-10.667 2.133-14.933 6.4l-42.667 42.667c-8.533 8.533-8.533 23.467 0 32l36.267 36.267c8.533 8.533 10.667 23.467 4.267 34.133l-29.867 72.533c-4.267 10.667-17.067 21.333-27.733 21.333h-57.6c-12.8 0-21.333 10.667-21.333 21.333v59.733c0 12.8 10.667 21.333 21.333 21.333h53.333c12.8 0 25.6 8.533 27.733 21.333l29.867 72.533c6.4 10.667 4.267 25.6-4.267 34.133l-36.267 36.267c-8.533 8.533-8.533 23.467 0 32l42.667 42.667c4.267 4.267 10.667 6.4 14.933 6.4 6.4 0 10.667-2.133 14.933-6.4l36.267-36.267c6.4-6.4 12.8-8.533 21.333-8.533 4.267 0 8.533 0 12.8 4.267l72.533 29.867c10.667 4.267 21.333 17.067 21.333 27.733v55.467c0 12.8 10.667 21.333 21.333 21.333h64zM512 283.733c81.067 0 145.067 64 145.067 145.067s-64 145.067-145.067 145.067c-81.067 0-145.067-64-145.067-145.067 0-78.933 64-145.067 145.067-145.067zM541.867 857.6h-59.733c-36.267 0-64-29.867-64-64v-42.667l-64-25.6-29.867 29.867c-12.8 12.8-27.733 19.2-44.8 19.2s-34.133-6.4-44.8-19.2l-42.667-42.667c-25.6-25.6-25.6-66.133 0-91.733l29.867-29.867-25.6-64h-46.933c-36.267 0-64-29.867-64-64v-59.733c0-36.267 29.867-64 64-64h42.667l25.6-64-29.867-29.867c-10.667-17.067-17.067-32-17.067-49.067s6.4-34.133 19.2-44.8l42.667-42.667c12.8-12.8 27.733-19.2 44.8-19.2s34.133 6.4 44.8 19.2l29.867 29.867 64-25.6v-42.667c0-36.267 29.867-64 64-64h59.733c36.267 0 64 29.867 64 64v42.667l64 25.6 29.867-29.867c12.8-12.8 27.733-19.2 44.8-19.2s34.133 6.4 46.933 19.2l42.667 42.667c12.8 12.8 19.2 27.733 19.2 44.8s-6.4 34.133-19.2 46.933l-29.867 29.867 25.6 64h42.667c36.267 0 64 29.867 64 64v59.733c0 36.267-29.867 64-64 64h-42.667l-25.6 64 29.867 29.867c12.8 12.8 19.2 27.733 19.2 44.8s-6.4 34.133-19.2 44.8l-42.667 42.667c-12.8 12.8-27.733 19.2-44.8 19.2s-34.133-6.4-44.8-19.2l-29.867-32-64 25.6v42.667c2.133 40.533-27.733 70.4-64 70.4v0zM512 326.4c-55.467 0-102.4 46.933-102.4 102.4s44.8 104.533 102.4 104.533c55.467 0 102.4-46.933 102.4-102.4s-46.933-104.533-102.4-104.533v0z" />
<glyph unicode="&#xe94d;" glyph-name="icon_smzl" d="M870.4 499.2v-162.133h-27.733v89.6h-8.533c-4.267-4.267-74.667-4.267-91.733 0s-102.4 53.333-119.467 53.333c-14.933 2.133-262.4-4.267-264.533 0s-38.4 27.733-64 27.733-55.467-44.8-55.467-44.8h-42.667l-8.533-108.8h-27.733v253.867h-64v-430.933h72.533v81.067h691.2v-81.067h81.067v322.133h-70.4zM322.133 558.933h85.333v27.733h-49.067l57.6 91.733h-91.733v-21.333h49.067l-57.6-98.133h6.4zM445.867 558.933h98.133v34.133h-57.6l66.133 108.8h-106.667v-25.6h57.6l-66.133-117.333h8.533zM597.333 558.933h123.733v42.667h-74.667l85.333 134.4h-134.4v-32h72.533l-81.067-145.067h8.533z" />
<glyph unicode="&#xe94e;" glyph-name="icon_star-a" d="M629.333 565.333l-108.8 147.2-121.6-138.667-172.8-57.6 93.867-157.867 2.133-183.467 177.067 42.667 174.933-55.467 17.067 183.467 106.667 149.333zM512 921.6c-264.533 0-480-215.467-480-480s215.467-480 480-480c264.533 0 480 215.467 480 480s-215.467 480-480 480zM738.133 328.533l-19.2-230.4-219.733 70.4-224-51.2-2.133 230.4-119.467 196.267 217.6 72.533 151.467 172.8 136.533-185.6 211.2-89.6-132.267-185.6z" />
<glyph unicode="&#xe94f;" glyph-name="icon_star-b" d="M761.6 87.467l-251.733 78.933-256-59.733-2.133 264.533-136.533 226.133 249.6 83.2 172.8 198.4 155.733-213.333 245.333-102.4-153.6-213.333-23.467-262.4zM512 224l200.533-64 17.067 209.067 121.6 170.667-194.133 81.067-123.733 168.533-136.533-157.867-198.4-66.133 108.8-179.2 2.133-209.067 202.667 46.933z" />
<glyph unicode="&#xe950;" glyph-name="icon_store-a" d="M672 663.467h-334.933l-51.2-102.4c-6.4-29.867-4.267-53.333 6.4-70.4 14.933-23.467 40.533-27.733 40.533-27.733 49.067 0 72.533 29.867 81.067 49.067l2.133 4.267 6.4 2.133h8.533v-8.533c0-55.467 51.2-64 81.067-64 55.467 0 64 61.867 64 64l2.133 19.2 12.8-12.8c36.267-36.267 78.933-49.067 85.333-51.2 21.333 0 38.4 6.4 49.067 19.2 17.067 21.333 14.933 53.333 12.8 59.733l-66.133 119.467zM676.267 554.667h-343.467v19.2h345.6v-19.2zM512 925.867c-264.533 0-480-215.467-480-482.133s215.467-482.133 480-482.133c264.533 0 480 215.467 480 482.133s-215.467 482.133-480 482.133zM723.2 253.867c0-19.2-6.4-32-17.067-40.533-8.533-6.4-19.2-8.533-27.733-8.533s-17.067 2.133-21.333 2.133h-307.2c-36.267 0-44.8 42.667-44.8 42.667v166.4h19.2v-160c2.133-4.267 8.533-27.733 27.733-27.733h311.467c6.4-2.133 23.467-4.267 34.133 2.133 6.4 4.267 8.533 12.8 8.533 25.6v164.267h19.2v-166.4zM740.267 471.467c-14.933-17.067-36.267-25.6-64-25.6h-2.133c-2.133 0-42.667 10.667-83.2 44.8-8.533-27.733-29.867-64-78.933-64-51.2 0-85.333 21.333-96 55.467-14.933-19.2-40.533-38.4-85.333-38.4-2.133 0-34.133 6.4-53.333 34.133-14.933 21.333-17.067 51.2-8.533 85.333v2.133l57.6 113.067h356.267l76.8-134.4c0 0 6.4-42.667-19.2-72.533z" />
<glyph unicode="&#xe951;" glyph-name="icon_store" d="M804.267 14.933c-14.933 0-29.867 4.267-36.267 4.267h-529.067c-61.867 0-76.8 72.533-76.8 74.667v285.867h29.867v-279.467c2.133-8.533 14.933-49.067 46.933-49.067h535.467c10.667-4.267 40.533-8.533 57.6 4.267 10.667 8.533 17.067 23.467 17.067 44.8v279.467h32v-281.6c0-32-10.667-55.467-29.867-70.4-14.933-8.533-32-12.8-46.933-12.8zM520.533 394.667c-87.467 0-147.2 36.267-166.4 96-25.6-32-70.4-66.133-147.2-66.133-4.267 0-59.733 10.667-93.867 59.733-25.6 38.4-29.867 87.467-14.933 147.2l100.267 200.533h612.267l132.267-232.533c0-4.267 12.8-78.933-29.867-130.133-25.6-29.867-61.867-44.8-110.933-44.8h-4.267c-4.267 0-74.667 19.2-142.933 78.933-12.8-46.933-53.333-108.8-134.4-108.8zM364.8 552.533h14.933v-14.933c0-96 87.467-108.8 140.8-108.8 96 0 108.8 106.667 108.8 110.933l4.267 32 23.467-23.467c61.867-61.867 134.4-85.333 147.2-89.6 38.4 0 66.133 10.667 83.2 32 29.867 36.267 25.6 89.6 23.467 102.4l-119.467 209.067h-576l-89.6-177.067c-12.8-49.067-8.533-89.6 10.667-119.467 25.6-38.4 70.4-46.933 70.4-46.933 85.333 0 123.733 51.2 138.667 83.2l4.267 8.533 14.933 2.133zM209.067 646.4h593.067v-32h-593.067v32z" />
<glyph unicode="&#xe952;" glyph-name="icon_tag-a" d="M168.533 872.533h746.667v-851.2h-38.4l-332.8 337.067h-25.6l-326.4-339.2h-23.467v853.333z" />
<glyph unicode="&#xe953;" glyph-name="icon_tag-b" d="M512 398.933c10.667 0 21.333 0 168.533-155.733v443.733h-337.067v-443.733c147.2 155.733 157.867 155.733 168.533 155.733zM512 928c-264.533 0-480-215.467-480-480s215.467-480 480-480c264.533 0 480 215.467 480 480s-215.467 480-480 480zM727.467 123.733l-40.533 44.8c-68.267 72.533-145.067 151.467-174.933 177.067-29.867-25.6-106.667-106.667-174.933-179.2l-40.533-44.8v614.4h430.933v-612.267z" />
<glyph unicode="&#xe954;" glyph-name="icon_tag" d="M228.267 34.133v806.4h567.467v-806.4l-55.467 57.6c-89.6 96-192 200.533-230.4 234.667-38.4-34.133-138.667-138.667-230.4-234.667l-51.2-57.6zM512 398.933c14.933 0 27.733 0 221.867-204.8v582.4h-443.733v-582.4c194.133 204.8 206.933 204.8 221.867 204.8z" />
<glyph unicode="&#xe955;" glyph-name="icon_talk-a" d="M789.333 827.733h-554.667c-64 0-115.2-51.2-115.2-115.2v-418.133c0-64 51.2-115.2 115.2-115.2h388.267l192-123.733v125.867c53.333 10.667 91.733 57.6 91.733 113.067v418.133c0 64-53.333 115.2-117.333 115.2zM859.733 294.4c0-38.4-32-70.4-70.4-70.4h-21.333v-85.333l-132.267 85.333h-401.067c-38.4 0-70.4 32-70.4 70.4v418.133c0 38.4 32 70.4 70.4 70.4h554.667c38.4 0 70.4-32 70.4-70.4v-418.133zM337.067 544h70.4v-70.4h-70.4v70.4zM477.867 544h70.4v-70.4h-70.4v70.4zM616.533 544h70.4v-70.4h-70.4v70.4z" />
<glyph unicode="&#xe956;" glyph-name="icon_talk-b" d="M164.267 170.667l25.6 149.333c-53.333 53.333-83.2 121.6-83.2 192 0 157.867 149.333 288 330.667 288s330.667-130.133 330.667-288c0-157.867-149.333-288-330.667-288-27.733 0-57.6 4.267-85.333 10.667l-187.733-64zM437.333 757.333c-160 0-288-110.933-288-245.333 0-61.867 27.733-121.6 78.933-168.533l8.533-8.533-17.067-102.4 132.267 44.8 6.4-2.133c25.6-6.4 53.333-10.667 81.067-10.667 155.733 2.133 285.867 110.933 285.867 247.467s-130.133 245.333-288 245.333zM761.6 76.8l-123.733 49.067c-27.733-6.4-130.133-21.333-264.533 46.933-10.667 4.267-14.933 17.067-8.533 27.733 4.267 10.667 17.067 14.933 27.733 8.533 138.667-70.4 238.933-40.533 241.067-40.533l6.4 2.133 89.6-36.267 17.067 89.6 6.4 4.267c132.267 93.867 40.533 264.533 36.267 270.933-6.4 10.667-2.133 23.467 8.533 29.867s23.467 2.133 29.867-8.533c38.4-70.4 78.933-228.267-42.667-322.133l-23.467-121.6zM302.933 544c-17.067 0-32-14.933-32-32s14.933-32 32-32c17.067 0 32 14.933 32 32s-12.8 32-32 32zM452.267 544c-17.067 0-32-14.933-32-32s14.933-32 32-32c17.067 0 32 14.933 32 32s-12.8 32-32 32zM601.6 544c-17.067 0-32-14.933-32-32s14.933-32 32-32c17.067 0 32 14.933 32 32s-12.8 32-32 32z" />
<glyph unicode="&#xe957;" glyph-name="icon_tick-c" d="M454.4 74.667c-14.933 0-27.733 6.4-38.4 14.933l-93.867 91.733 10.667 10.667c8.533 8.533 12.8 19.2 12.8 32s-4.267 23.467-12.8 32c-17.067 17.067-49.067 17.067-68.267 0l-8.533-8.533-108.8 104.533c-10.667 10.667-14.933 23.467-14.933 38.4s6.4 27.733 14.933 38.4l388.267 377.6c21.333 19.2 55.467 19.2 76.8 0l115.2-113.067-17.067-8.533c-6.4-2.133-10.667-6.4-12.8-8.533-8.533-8.533-12.8-19.2-12.8-32s4.267-23.467 12.8-32c17.067-17.067 49.067-17.067 68.267 0 4.267 4.267 6.4 8.533 8.533 12.8l8.533 17.067 100.267-98.133c10.667-10.667 14.933-23.467 14.933-38.4s-6.4-27.733-14.933-38.4l-390.4-375.467c-10.667-10.667-23.467-17.067-38.4-17.067zM358.4 183.467l74.667-74.667c10.667-10.667 27.733-10.667 38.4 0l388.267 377.6c4.267 4.267 8.533 10.667 8.533 19.2 0 6.4-2.133 12.8-8.533 19.2l-72.533 72.533c-2.133-2.133-2.133-4.267-4.267-4.267-27.733-27.733-76.8-27.733-104.533 0-14.933 12.8-21.333 32-21.333 51.2s8.533 38.4 21.333 51.2c2.133 2.133 2.133 2.133 4.267 4.267l-89.6 87.467c-10.667 10.667-27.733 10.667-38.4 0l-388.267-377.6c-4.267-4.267-8.533-10.667-8.533-19.2 0-6.4 2.133-12.8 8.533-19.2l89.6-87.467c27.733 19.2 70.4 14.933 93.867-8.533 14.933-12.8 21.333-32 21.333-51.2 2.133-14.933-4.267-27.733-12.8-40.533zM332.8 394.667l221.867 221.867c4.267 4.267 12.8 4.267 17.067 0l17.067-17.067c4.267-4.267 4.267-12.8 0-17.067l-221.867-221.867c-4.267-4.267-12.8-4.267-17.067 0l-17.067 17.067c-6.4 4.267-6.4 12.8 0 17.067zM439.467 288l221.867 221.867c4.267 4.267 12.8 4.267 17.067 0l17.067-17.067c4.267-4.267 4.267-12.8 0-17.067l-221.867-221.867c-4.267-4.267-12.8-4.267-17.067 0l-17.067 17.067c-6.4 4.267-6.4 12.8 0 17.067z" />
<glyph unicode="&#xe958;" glyph-name="icon_ticket-a" d="M866.133 663.467h-704c-53.333 0-96-42.667-96-96v-113.067c0-10.667 8.533-19.2 19.2-19.2 42.667 0 76.8-34.133 76.8-76.8s-34.133-76.8-76.8-76.8c-10.667 0-19.2-8.533-19.2-19.2v-96c0-53.333 42.667-96 96-96h701.867c53.333 0 96 42.667 96 96v401.067c0 53.333-42.667 96-93.867 96zM921.6 168.533c0-32-25.6-57.6-57.6-57.6h-701.867c-32 0-57.6 25.6-57.6 57.6v76.8c53.333 8.533 96 55.467 96 113.067 0 55.467-40.533 102.4-96 113.067v96c0 32 25.6 57.6 57.6 57.6h701.867c32 0 57.6-25.6 57.6-57.6v-398.933zM102.4 695.467c0 29.867 25.6 55.467 57.6 55.467h701.867c32 0 57.6-25.6 57.6-57.6v-38.4h38.4v38.4c0 53.333-42.667 96-96 96h-701.867c-53.333 0-96-42.667-96-93.867v-38.4h38.4v38.4zM646.4 516.267c4.267 2.133 6.4 4.267 2.133 4.267-6.4 2.133-25.6 10.667-34.133 17.067-4.267-14.933-21.333-40.533-38.4-51.2 8.533-2.133 23.467-6.4 32-12.8 12.8 21.333 32 42.667 38.4 42.667zM595.2 390.4c38.4 0 59.733 0 85.333-2.133v27.733c-29.867-2.133-55.467-2.133-104.533-2.133h-64c6.4 10.667 10.667 21.333 14.933 34.133h64c32 0 46.933 0 72.533-2.133v27.733c-23.467-4.267-42.667-4.267-130.133-4.267 4.267 14.933 8.533 34.133 10.667 46.933s4.267 17.067 8.533 19.2c2.133 2.133 2.133 6.4-2.133 6.4-10.667 0-27.733 2.133-38.4 6.4 2.133-19.2-2.133-51.2-8.533-78.933-64 0-81.067 0-102.4 2.133v-27.733c25.6 2.133 53.333 4.267 96 2.133-4.267-12.8-8.533-23.467-17.067-34.133-40.533 0-72.533 0-100.267 2.133v-27.733c23.467 2.133 51.2 2.133 83.2 2.133-21.333-23.467-53.333-40.533-96-53.333 10.667-6.4 21.333-17.067 25.6-25.6 19.2 8.533 36.267 19.2 51.2 29.867v-21.333c12.8 2.133 27.733 2.133 49.067 2.133-4.267-44.8-32-61.867-87.467-72.533 8.533-6.4 21.333-21.333 21.333-27.733 85.333 29.867 93.867 61.867 96 98.133h66.133l-4.267-40.533c-2.133-21.333-8.533-29.867-46.933-21.333 8.533-8.533 10.667-19.2 10.667-34.133 61.867 8.533 61.867 10.667 64 49.067l4.267 57.6c17.067-12.8 38.4-21.333 59.733-25.6 2.133 12.8 8.533 25.6 19.2 34.133-42.667 8.533-76.8 19.2-100.267 53.333zM452.267 345.6c19.2 12.8 34.133 29.867 46.933 44.8h72.533c6.4-17.067 19.2-32 34.133-44.8h-153.6zM448 477.867l25.6 21.333c-10.667 10.667-25.6 25.6-36.267 34.133l-25.6-19.2c10.667-8.533 25.6-23.467 36.267-36.267z" />
<glyph unicode="&#xe959;" glyph-name="icon_ticket-b" d="M512 859.733c-234.667 0-426.667-192-426.667-426.667s192-426.667 426.667-426.667c234.667 0 426.667 192 426.667 426.667 0 236.8-192 426.667-426.667 426.667zM492.8 115.2c-8.533-8.533-21.333-12.8-34.133-12.8s-25.6 4.267-34.133 12.8l-83.2 81.067 10.667 10.667c6.4 8.533 10.667 17.067 10.667 27.733s-4.267 21.333-12.8 29.867c-17.067 14.933-44.8 14.933-59.733 0l-8.533-8.533-96 93.867c-8.533 8.533-14.933 21.333-14.933 34.133s4.267 23.467 14.933 34.133l345.6 332.8c17.067 17.067 49.067 17.067 68.267 0l102.4-100.267-14.933-6.4c-4.267-2.133-8.533-4.267-12.8-8.533-8.533-6.4-12.8-17.067-12.8-27.733s4.267-21.333 12.8-29.867c17.067-14.933 44.8-14.933 59.733 0 2.133 2.133 6.4 6.4 8.533 10.667l6.4 14.933 89.6-87.467c8.533-8.533 14.933-21.333 14.933-34.133s-4.267-23.467-14.933-34.133l-345.6-332.8zM755.2 565.333c-2.133-2.133-2.133-2.133-4.267-4.267-25.6-23.467-68.267-23.467-93.867 0-12.8 12.8-19.2 27.733-19.2 44.8s6.4 34.133 19.2 44.8c2.133 2.133 2.133 2.133 4.267 4.267l-78.933 76.8c-8.533 8.533-25.6 8.533-34.133 0l-345.6-332.8c-4.267-4.267-6.4-10.667-6.4-17.067s2.133-12.8 6.4-17.067l81.067-78.933c25.6 17.067 61.867 14.933 83.2-6.4 12.8-12.8 19.2-27.733 19.2-44.8 0-12.8-4.267-25.6-10.667-36.267l66.133-66.133c8.533-8.533 25.6-8.533 34.133 0l345.6 334.933c4.267 4.267 6.4 10.667 6.4 17.067s-2.133 12.8-6.4 17.067l-66.133 64zM381.867 354.133c-4.267-4.267-10.667-4.267-14.933 0l-14.933 14.933c-4.267 4.267-4.267 10.667 0 14.933l196.267 196.267c4.267 4.267 10.667 4.267 14.933 0l14.933-14.933c4.267-4.267 4.267-10.667 0-14.933l-196.267-196.267zM674.133 456.533l-196.267-196.267c-4.267-4.267-10.667-4.267-14.933 0l-14.933 14.933c-4.267 4.267-4.267 10.667 0 14.933l196.267 196.267c4.267 4.267 10.667 4.267 14.933 0l14.933-14.933c4.267-2.133 4.267-10.667 0-14.933z" />
<glyph unicode="&#xe95a;" glyph-name="icon_tjnfb" d="M855.467 117.333c0 0-217.6 392.533-226.133 401.067v264.533h32c17.067 0 29.867 12.8 29.867 29.867s-12.8 29.867-29.867 29.867h-324.267c-17.067 0-29.867-12.8-29.867-29.867s12.8-29.867 29.867-29.867h32v-270.933c-6.4-4.267-219.733-394.667-219.733-394.667-17.067-29.867-2.133-53.333 32-53.333h644.267c32 0 46.933 23.467 29.867 53.333zM590.933 782.933v-238.933h-14.933c-4.267 0-8.533 0-12.8 0h-119.467c-4.267 0-8.533 0-12.8 0h-19.2v238.933h179.2zM401.067 157.867c-29.867 0-55.467 25.6-55.467 55.467s25.6 55.467 55.467 55.467c29.867 0 55.467-25.6 55.467-55.467s-25.6-55.467-55.467-55.467zM475.733 401.067c-10.667 0-21.333 8.533-21.333 21.333 0 10.667 8.533 19.2 21.333 19.2s19.2-8.533 19.2-19.2c2.133-12.8-6.4-21.333-19.2-21.333zM580.267 277.333c-19.2 0-34.133 14.933-34.133 34.133s14.933 34.133 34.133 34.133c19.2 0 34.133-14.933 34.133-34.133 2.133-19.2-14.933-34.133-34.133-34.133z" />
<glyph unicode="&#xe95b;" glyph-name="icon_tnb" d="M791.467 533.333c-23.467-12.8-44.8-12.8-66.133 4.267-29.867 25.6-59.733 32-96 0-19.2-14.933-36.267-21.333-57.6-6.4-21.333 32-44.8 38.4-78.933 2.133-19.2-14.933-36.267-17.067-57.6-2.133-34.133 36.267-64 32-96 2.133-23.467-12.8-42.667-14.933-66.133 2.133-38.4 21.333-81.067 27.733-100.267 19.2-21.333 221.867 661.333 277.333 708.267-4.267-14.933 14.933-44.8 12.8-89.6-17.067zM273.067 509.867l96-435.2h34.133l-64 435.2c29.867 29.867 59.733 36.267 96 0v-435.2h55.467v435.2c27.733 36.267 53.333 29.867 78.933 0v-435.2h55.467v435.2c32 36.267 64 29.867 98.133 0l-64-435.2h34.133l96 435.2c53.333 36.267 78.933 32 89.6 0l-166.4-445.867h-366.933l-174.933 445.867c12.8 34.133 49.067 32 102.4 0z" />
<glyph unicode="&#xe95c;" glyph-name="icon_type" d="M821.333 780.8c23.467 0 42.667-19.2 42.667-42.667v-202.667c0-23.467-19.2-42.667-42.667-42.667h-196.267c-23.467 0-42.667 19.2-42.667 42.667v202.667c0 23.467 19.2 42.667 42.667 42.667h196.267zM398.933 780.8c23.467 0 42.667-19.2 42.667-42.667v-202.667c0-23.467-19.2-42.667-42.667-42.667h-196.267c-23.467 0-42.667 19.2-42.667 42.667v202.667c0 23.467 19.2 42.667 42.667 42.667h196.267zM821.333 364.8c23.467 0 42.667-19.2 42.667-42.667v-202.667c0-23.467-19.2-42.667-42.667-42.667h-196.267c-23.467 0-42.667 19.2-42.667 42.667v202.667c0 23.467 19.2 42.667 42.667 42.667h196.267zM426.667 364.8c8.533 0 12.8-6.4 12.8-14.933v-258.133c0-8.533-6.4-14.933-12.8-14.933-14.933 2.133-136.533 12.8-196.267 72.533-64 64-72.533 187.733-72.533 200.533 0 8.533 6.4 14.933 12.8 14.933h256zM821.333 823.467h-196.267c-46.933 0-85.333-38.4-85.333-85.333v-202.667c0-46.933 38.4-85.333 85.333-85.333h196.267c46.933 0 85.333 38.4 85.333 85.333v202.667c0 46.933-38.4 85.333-85.333 85.333v0zM398.933 823.467h-196.267c-46.933 0-85.333-38.4-85.333-85.333v-202.667c0-46.933 38.4-85.333 85.333-85.333h196.267c46.933 0 85.333 38.4 85.333 85.333v202.667c0 46.933-38.4 85.333-85.333 85.333v0zM821.333 407.467h-196.267c-46.933 0-85.333-38.4-85.333-85.333v-202.667c0-46.933 38.4-85.333 85.333-85.333h196.267c46.933 0 85.333 38.4 85.333 85.333v202.667c0 46.933-38.4 85.333-85.333 85.333v0zM426.667 407.467h-253.867c-32 0-55.467-25.6-55.467-57.6 0 0 6.4-149.333 85.333-230.4 76.8-76.8 226.133-85.333 226.133-85.333 32 0 55.467 25.6 55.467 57.6v258.133c0 32-25.6 57.6-57.6 57.6v0z" />
<glyph unicode="&#xe95d;" glyph-name="icon_unfold" d="M774.4 778.667l-53.333 53.333-209.067-209.067-204.8 206.933-57.6-55.467 260.267-260.267 55.467 55.467v2.133zM774.4 305.067l-53.333 53.333-209.067-206.933-204.8 206.933-57.6-57.6 206.933-204.8v-2.133l53.333-51.2 55.467 55.467z" />
<glyph unicode="&#xe95e;" glyph-name="icon_up-b" d="M221.867 279.467l-38.4 38.4 330.667 330.667 330.667-330.667-38.4-38.4-292.267 292.267-292.267-292.267z" />
<glyph unicode="&#xe95f;" glyph-name="icon_user-a" d="M512 802.133c91.733 0 166.4-76.8 166.4-168.533 0-93.867-74.667-168.533-166.4-168.533s-166.4 76.8-166.4 168.533c0 91.733 74.667 168.533 166.4 168.533zM512 356.267c153.6 0 334.933-40.533 341.333-226.133-21.333-12.8-98.133-29.867-352-29.867-12.8 0-25.6 0-40.533 0-204.8-2.133-270.933 12.8-290.133 25.6 4.267 153.6 117.333 230.4 341.333 230.4zM512 844.8c-115.2 0-209.067-93.867-209.067-211.2s93.867-211.2 209.067-211.2 209.067 93.867 209.067 211.2c0 117.333-93.867 211.2-209.067 211.2v0zM512 398.933c-288 0-384-125.867-384-279.467 0-55.467 160-64 332.8-64 12.8 0 27.733 0 40.533 0 196.267 0 394.667 8.533 394.667 64 0 153.6-106.667 279.467-384 279.467v0z" />
<glyph unicode="&#xe960;" glyph-name="icon_user-b" d="M614.4 364.8c83.2 42.667 138.667 128 138.667 226.133 0 138.667-113.067 253.867-253.867 253.867s-253.867-113.067-253.867-253.867c0-102.4 59.733-189.867 147.2-230.4-245.333-66.133-270.933-337.067-270.933-341.333-2.133-14.933 10.667-27.733 23.467-27.733 14.933-2.133 27.733 10.667 29.867 23.467s29.867 307.2 337.067 307.2c305.067 0 334.933-294.4 337.067-307.2s12.8-23.467 25.6-23.467c0 0 2.133 0 2.133 0 14.933 2.133 25.6 14.933 23.467 27.733 2.133 4.267-25.6 285.867-285.867 345.6zM501.333 392.533c-110.933 0-200.533 89.6-200.533 200.533s89.6 200.533 200.533 200.533c110.933 0 200.533-89.6 200.533-200.533-2.133-110.933-91.733-200.533-200.533-200.533z" />
<glyph unicode="&#xe961;" glyph-name="icon_userinfo" d="M428.8 405.333c66.133 34.133 110.933 102.4 110.933 181.333 0 110.933-91.733 202.667-202.667 202.667s-202.667-91.733-202.667-202.667c0-81.067 49.067-151.467 117.333-183.467-196.267-53.333-215.467-270.933-215.467-273.067 0-10.667 8.533-21.333 19.2-23.467 10.667 0 21.333 8.533 23.467 19.2 0 10.667 23.467 247.467 268.8 247.467s268.8-236.8 268.8-247.467c0-10.667 10.667-19.2 21.333-19.2 0 0 2.133 0 2.133 0 10.667 0 21.333 10.667 19.2 23.467 0 2.133-23.467 228.267-230.4 275.2zM339.2 426.667c-87.467 0-160 72.533-160 160s72.533 160 160 160c87.467 0 160-72.533 160-160s-72.533-160-160-160zM970.667 196.267v488.533c0 23.467-6.4 42.667-19.2 53.333-14.933 12.8-34.133 12.8-42.667 10.667h-343.467c-12.8 0-21.333-8.533-21.333-21.333s8.533-21.333 21.333-21.333h345.6c2.133 0 2.133 0 4.267 0 0 0 6.4 0 8.533-2.133s4.267-8.533 4.267-19.2v-490.667c0 0 0-2.133 0-2.133 2.133-10.667 0-29.867-6.4-36.267 0 0-2.133-2.133-10.667-2.133h-164.267c-12.8 0-21.333-8.533-21.333-21.333s8.533-21.333 21.333-21.333h162.133c2.133 0 4.267 0 4.267 0 19.2 0 32 8.533 38.4 17.067 23.467 19.2 19.2 57.6 19.2 68.267zM870.4 552.533c12.8 0 21.333 8.533 21.333 21.333s-8.533 21.333-21.333 21.333h-243.2c-12.8 0-21.333-8.533-21.333-21.333s8.533-21.333 21.333-21.333h243.2zM891.733 424.533c0 12.8-8.533 21.333-21.333 21.333h-202.667c-12.8 0-21.333-8.533-21.333-21.333s8.533-21.333 21.333-21.333h202.667c10.667 0 21.333 10.667 21.333 21.333zM891.733 277.333c0 12.8-8.533 21.333-21.333 21.333h-149.333c-12.8 0-21.333-8.533-21.333-21.333s8.533-21.333 21.333-21.333h149.333c10.667 0 21.333 8.533 21.333 21.333z" />
<glyph unicode="&#xe962;" glyph-name="icon_voice-a" d="M53.333 627.2h236.8l234.667 275.2h78.933v-904.533h-78.933l-196.267 236.8h-275.2v392.533zM770.133 53.333c-8.533 0-17.067 6.4-19.2 14.933-2.133 10.667 2.133 21.333 12.8 23.467 6.4 2.133 166.4 55.467 166.4 339.2 0 288-168.533 379.733-168.533 379.733-10.667 4.267-12.8 17.067-8.533 25.6 4.267 10.667 17.067 12.8 25.6 8.533s189.867-102.4 189.867-416c0-313.6-185.6-373.333-194.133-375.467 0 0-2.133 0-4.267 0zM712.533 183.467c-8.533 0-14.933 4.267-19.2 12.8-4.267 10.667 2.133 21.333 12.8 25.6 4.267 2.133 85.333 34.133 85.333 215.467 0 183.467-85.333 241.067-89.6 243.2-8.533 6.4-12.8 17.067-6.4 27.733 6.4 8.533 17.067 12.8 27.733 6.4 4.267-2.133 106.667-70.4 106.667-275.2 0-209.067-106.667-249.6-110.933-251.733-2.133-4.267-4.267-4.267-6.4-4.267z" />
<glyph unicode="&#xe963;" glyph-name="icon_voice-b" d="M512 928c-264.533 0-480-215.467-480-480s215.467-480 480-480c264.533 0 480 215.467 480 480s-215.467 480-480 480zM571.733 185.6h-44.8l-113.067 136.533h-160v228.267h136.533l136.533 160h44.8v-524.8zM633.6 281.6c-10.667 0-19.2 6.4-23.467 14.933-4.267 12.8 2.133 25.6 14.933 29.867 0 0 40.533 19.2 40.533 113.067 0 98.133-44.8 128-44.8 130.133-10.667 6.4-14.933 21.333-6.4 32 6.4 10.667 21.333 14.933 32 6.4 2.133-2.133 68.267-44.8 68.267-170.667 0-128-66.133-153.6-72.533-157.867-4.267 2.133-6.4 2.133-8.533 2.133zM674.133 206.933c-2.133 0-4.267 0-6.4 0-10.667 0-19.2 6.4-23.467 17.067-4.267 12.8 4.267 25.6 17.067 29.867 4.267 2.133 87.467 29.867 87.467 183.467 0 157.867-87.467 206.933-91.733 209.067-10.667 6.4-17.067 21.333-10.667 32s21.333 17.067 32 10.667c4.267-2.133 117.333-64 117.333-251.733 0-192-117.333-228.267-121.6-230.4z" />
<glyph unicode="&#xe964;" glyph-name="icon_voice-c" d="M313.6 590.933h-215.467v-356.267h251.733l179.2-215.467h70.4v823.467h-70.4zM768 806.4c-19.2 8.533-40.533 2.133-51.2-14.933-10.667-19.2-2.133-40.533 14.933-51.2 6.4-2.133 142.933-81.067 142.933-328.533 0-241.067-132.267-285.867-136.533-288-19.2-6.4-32-27.733-25.6-46.933 4.267-17.067 19.2-27.733 36.267-27.733 4.267 0 6.4 0 10.667 2.133 8.533 2.133 189.867 59.733 189.867 360.533 2.133 296.533-172.8 392.533-181.333 394.667zM825.6 418.133c0 198.4-102.4 264.533-106.667 266.667-17.067 10.667-40.533 6.4-51.2-10.667s-6.4-40.533 10.667-51.2c2.133-2.133 72.533-51.2 72.533-204.8 0-147.2-61.867-174.933-64-177.067-19.2-6.4-29.867-27.733-23.467-49.067 6.4-14.933 19.2-25.6 36.267-25.6 4.267 0 8.533 0 12.8 2.133 10.667 6.4 113.067 49.067 113.067 249.6z" />
<glyph unicode="&#xe965;" glyph-name="icon_xxgjb" d="M874.667 584.533c-14.933 68.267-4.267 211.2-253.867 247.467-249.6 38.4-473.6-81.067-416-341.333 0-46.933-100.267-121.6-74.667-147.2 23.467-25.6 64-25.6 64-25.6s-25.6-46.933-14.933-59.733c12.8-12.8 44.8-8.533 44.8-8.533s-32-21.333-32-36.267c0-17.067 51.2-38.4 51.2-38.4s-8.533-89.6 70.4-85.333c78.933 6.4 91.733 27.733 91.733 27.733l23.467-91.733h300.8l-10.667 198.4c0 0 183.467 192 155.733 360.533zM757.333 477.867l-83.2-17.067-36.267 32 12.8 32h108.8v-46.933zM753.067 753.067l61.867-61.867-61.867-49.067h-34.133v32l19.2 23.467-2.133 40.533 17.067 14.933zM718.933 780.8l-4.267-87.467-32-44.8-21.333 8.533 2.133 53.333-55.467 17.067 46.933 66.133 64-12.8zM507.733 721.067v72.533h81.067l38.4-14.933-23.467-36.267-19.2-27.733 59.733-17.067v-36.267l-12.8-32-76.8-4.267v12.8l-14.933 6.4-14.933-40.533-38.4-14.933-51.2 34.133 21.333 36.267 32-10.667 4.267 17.067-17.067 12.8 10.667 21.333 64-21.333 19.2 8.533-61.867 34.133zM362.667 693.333c4.267 0 76.8 0 76.8 0l-59.733 25.6 17.067 29.867 87.467 32v-51.2h-59.733l40.533-23.467-38.4-70.4h-72.533c2.133 0 6.4 57.6 8.533 57.6zM358.4 620.8h53.333l68.267-44.8-42.667-17.067-78.933 61.867zM456.533 516.267v40.533l25.6 12.8 61.867-25.6 38.4-12.8 4.267 19.2-49.067 19.2 4.267 32 74.667-2.133 66.133 36.267 66.133-19.2 70.4 49.067 36.267-59.733-89.6-6.4-14.933-36.267 40.533-4.267-27.733 12.8 6.4 19.2 78.933 2.133-6.4-66.133h-74.667l-34.133 27.733-46.933-17.067-36.267 2.133 32 27.733-72.533 2.133 25.6-29.867-21.333-46.933h-119.467l-38.4 23.467zM646.4 403.2l-68.267 66.133c8.533 0 46.933 10.667 46.933 10.667l57.6-59.733-36.267-17.067z" />
<glyph unicode="&#xe966;" glyph-name="icon_zfg" d="M413.867 753.067c-149.333 17.067-238.933-98.133-273.067-177.067s32-232.533 27.733-341.333c-4.267-108.8 64-98.133 81.067-96 17.067 4.267 102.4 81.067 164.267 123.733 61.867 40.533 68.267 23.467 121.6 55.467 55.467 29.867 51.2 68.267 55.467 136.533s-27.733 281.6-177.067 298.667zM780.8 642.133c-55.467 10.667-136.533 34.133-164.267 12.8s-4.267-177.067 0-245.333 51.2-38.4 68.267-27.733c17.067 10.667 104.533 85.333 164.267 149.333 57.6 68.267-12.8 102.4-68.267 110.933z" />
<glyph unicode="&#xe967;" glyph-name="icon_zqmyl" d="M904.533 74.667v345.6c0 0-34.133 25.6-125.867 19.2-93.867-6.4-162.133-91.733-162.133-91.733s-134.4 14.933-181.333 0c-46.933-14.933-108.8-36.267-108.8-36.267s57.6 27.733 53.333 72.533c-2.133 44.8-8.533 198.4 0 219.733s17.067 36.267 53.333 36.267c36.267 0 147.2-10.667 162.133 19.2s61.867 172.8-89.6 181.333c-151.467 8.533-183.467-57.6-217.6-128s-151.467-249.6-162.133-328.533c-10.667-78.933-10.667-164.267 36.267-236.8s243.2-89.6 270.933-91.733c29.867-2.133 151.467 0 181.333 19.2s53.333 36.267 53.333 36.267 38.4 19.2 108.8 0c70.4-19.2 128-36.267 128-36.267z" />
</font>
</defs>
</svg>
